<svg width="270" height="100" xmlns="http://www.w3.org/2000/svg" xmlns:xlink="http://www.w3.org/1999/xlink"><defs><path id="a" d="M0 0h67.585v100H0z"/></defs><g fill="none" fill-rule="evenodd"><g><mask id="b" fill="#fff"><use xlink:href="#a"/></mask><path d="M67.578 41.228c-1.215 2.558-2.73 4.83-4.647 6.8-2.055 2.055-4.51 3.811-7.308 5.01-2.741 1.199-5.71 2.03-8.851 2.03H31.583l7.595-8.109h7.594c2.112 0 4.111-.37 5.938-1.112 1.827-.8 3.483-1.856 4.854-3.283a16.44 16.44 0 0 0 3.254-4.848 14.799 14.799 0 0 0 1.2-5.872c0-2.055-.4-3.98-1.2-5.865-.799-1.826-1.884-3.394-3.311-4.821-1.37-1.37-3.027-2.45-4.854-3.249-1.827-.742-3.825-1.017-5.881-1.017h-7.594l-7.595-7.77h15.189c3.14 0 6.053.564 8.85 1.762 2.741 1.2 5.196 2.79 7.252 4.846 1.966 1.965 3.483 4.183 4.697 6.734l.014-.028V0H16.896L0 33.784 67.585 100V41.24a.168.168 0 0 1-.007-.013" fill="#E9E9E9" mask="url(#b)"/></g><path d="M99.928 35.81h-11.73v-7.77h19.324l-7.594 7.77zM118.273 0H67.584v22.436c1.114-2.427 2.696-4.664 4.764-6.706 4.397-4.51 9.765-6.736 16.103-6.736 3.14 0 6.11.57 8.907 1.77a23.699 23.699 0 0 1 7.31 4.966l-5.482 5.366c-2.97-2.968-6.51-4.453-10.735-4.453-4.168 0-7.766 1.428-10.792 4.453-2.97 2.969-4.397 6.565-4.397 10.732 0 4.167 1.428 7.821 4.397 10.79 2.969 2.968 6.624 4.395 10.792 4.395 2.284 0 4.396-.457 6.338-1.313a15.922 15.922 0 0 0 5.139-3.824l7.594 2.512c-1.028 1.541-2.227 2.97-3.654 4.225a23.26 23.26 0 0 1-4.511 3.255 19.737 19.737 0 0 1-5.196 2.058c-1.827.514-3.712.749-5.71.749-6.338 0-11.648-2.27-16.103-6.723-2.056-2.056-3.644-4.273-4.764-6.71V100l67.585-66.216L118.273 0z" fill="#F5F5F5"/><path fill="#F25F5C" d="M43.025 38.852l-4.686-2.71-4.89 2.323 1.13-5.293-3.722-3.931 5.385-.562 2.59-4.753 2.198 4.946 5.322.993-4.026 3.62z"/><g fill="#FFF"><path d="M149.7 8.286h3.712c2.466 0 4.614.264 6.577 1.72 2.147 1.615 3.394 4.183 3.394 7.121 0 2.938-1.22 5.48-3.554 7.12-2.068 1.456-4.004 1.695-6.47 1.695h-3.66V8.286zm2.704 2.541v12.574h1.167c1.326 0 3.156-.106 4.694-1.245 1.22-.926 2.413-2.62 2.413-5.029 0-2.33-1.114-4.156-2.387-5.082-1.538-1.112-3.42-1.218-4.72-1.218h-1.167zm26.624 15.115l-1.856-4.262h-7.558l-1.935 4.262h-2.917l8.804-18.689 8.38 18.689h-2.918zm-8.3-6.803h5.357l-2.625-5.983-2.732 5.983zm16.15 6.803V13.606l12.834 13.421V8.286h-2.705v12.23L184.173 7.094v18.847h2.705zM159.713 53.474h4.41c-.107 1-.505 2.026-1.488 2.973-1.142 1.105-2.417 1.553-3.958 1.553-1.7 0-3.214-.474-4.435-1.763-1.17-1.237-1.833-3-1.833-4.763 0-1.895.717-3.763 1.886-4.92.876-.869 2.364-1.816 4.674-1.816 1.09 0 2.152.184 3.135.763.85.474 1.646 1.263 2.178 2l2.151-1.5c-.505-.79-1.408-1.816-2.869-2.631-1.38-.763-3.027-1.105-4.621-1.105-2.736 0-5.153 1.105-6.667 2.63-1.46 1.448-2.576 3.816-2.576 6.553 0 2.526.903 4.868 2.63 6.63 1.62 1.658 3.452 2.395 6.029 2.395 2.018 0 4.196-.474 6.029-2.237 1.726-1.657 2.63-4.104 2.63-7.104V51h-7.305v2.474zm10.704-10.894h3.16c2.152 0 3.534.263 4.676 1.026 1.939 1.29 2.098 3.368 2.098 4.132 0 2.526-1.567 4.367-3.931 4.894l5.525 7.499h-3.267l-5.073-7.183h-.479v7.183h-2.709V42.58zm2.71 2.474v5.578h.85c.743 0 3.771-.079 3.771-2.868 0-2.474-2.364-2.71-3.692-2.71h-.93zm23.745 15.077l-1.86-4.236h-7.57l-1.938 4.236h-2.922l8.818-18.577 8.394 18.577h-2.922zm-8.314-6.762h5.366l-2.63-5.947-2.736 5.947zm17.159 6.762h2.709v-7.578l5.817-9.973h-3.081l-4.09 7.026-4.091-7.026H199.9l5.817 9.973v7.578zM156.116 92.568H149.7V75h6.019c1.776 0 4.746.237 7.026 2.423 2.068 1.975 2.466 4.504 2.466 6.4 0 2.318-.583 4.372-2.307 6.084-1.405 1.396-3.765 2.66-6.788 2.66zm-1.83-13.696v9.824h.929c1.113 0 2.678-.105 3.871-1.264.583-.553 1.352-1.66 1.352-3.609 0-1.633-.503-3.029-1.378-3.845-1.088-1-2.52-1.106-3.66-1.106h-1.113zM168.129 75h7.159c1.326 0 3.023.21 4.322 1.554 1.008 1.027 1.511 2.555 1.511 3.95 0 1.502-.53 2.819-1.405 3.662-.69.658-1.617 1.053-2.44 1.211l5.542 7.19h-5.7l-4.402-6.742v6.743h-4.587V75zm4.587 3.53v4.345h.875c.69 0 1.67-.184 2.227-.711.345-.342.584-.922.584-1.475 0-.527-.212-1.106-.61-1.475-.424-.421-1.193-.685-2.201-.685h-.875zm16.254 14.038v-8.429L182.579 75h5.488l3.341 4.794L194.617 75h5.568l-6.602 9.14v8.428h-4.614zM199.867 75h4.8l3.075 11.352L211.48 75h3.659l3.473 11.352L221.954 75h4.8l-5.648 17.568h-4.694L213.204 82.4l-3.394 10.167h-4.667L199.867 75zm40.621 17.568l-1.087-2.95h-6.416l-1.194 2.95h-4.852L233.727 75h5.011l6.656 17.568h-4.906zm-6.23-6.427h3.924l-1.99-5.689-1.935 5.69zM247.434 75v17.568h10.103v-3.872h-5.515V75h-4.588zm12.463 0v17.568H270v-3.872h-5.515V75h-4.587z"/></g></g></svg>
