<svg width="649" height="111" xmlns="http://www.w3.org/2000/svg"><g fill="#E72192" fill-rule="nonzero"><path d="M11.304 108.76l-1.728-.144H7.992l-1.584-.288-.72-1.728.144-.72.432-.288 1.584.288h10.368l2.448-.288.864-.72.288-1.44.432-1.296.288-1.152.144-1.152.144-.864.432-1.008v-1.008l.144-1.008.432-1.44.288-2.16v-1.728l.288-1.296.288-1.008.288-1.296.432-1.44.432-1.296.288-1.584.144-1.584.576-1.44-.144-1.008.144-.864.432-1.008-.144-.864.432-1.44.288-2.16.288-1.44.144-1.152 1.152-.576h9.072l5.04-.864 2.592-.576 5.184-2.016 1.44-.72 2.448-1.872 1.44-1.152.864-1.152 1.152-1.152 1.008-1.44 1.296-1.296.864-1.728 1.296-2.016.864-1.728 1.008-1.872.864-2.16.72-1.872.432-1.584.288-1.44v-.864l.576-1.008.144-1.008.288-1.152.288-1.44.288-2.592.432-2.16.432-1.296v-1.584l.144-1.584v-3.456l-.288-2.448v-2.88l-.288-1.584-.144-1.296-.432-1.872-.576-1.44-.576-1.728 1.008-.144 1.008 1.584.576 1.008.72 1.008.576 1.44.72 1.584.288 1.44.144 1.296.288 1.584v1.296l.288 1.296.144 1.584v1.728l.144 1.584-.144 1.296-.144 1.584v1.584l-.144 1.296-.432 2.16-.432 2.592-.432 1.44v1.152l-.288 1.008-.576 1.008v.864l-.576 1.44-1.152 3.168-1.152 2.16-.864 2.16-.864 1.728-1.152 1.872-1.152 1.584-1.152 1.296-1.152 1.44-1.008 1.152-.72.864-1.296.864-1.296 1.44-1.152.72-1.584 1.008-1.584.576-2.16 1.152-2.016.576-1.872.864-2.16.144-2.592.576-3.744.432-5.472.144-1.296.432-.144 1.152-.288 1.008v.72l-.144 1.296-.288 1.44-.144.864-.144 1.008-.144.864-.144 1.008-.432 1.44-.144 1.584-.576 1.584-.144 1.296-.432 1.44-.144 1.296-.576 1.008-.144 1.296v1.728l-.288 2.16-.144 1.44-.576 2.016v1.008l-.288.864-.576 1.152-.288 1.152.144 1.296-.576 1.44-.432 1.008H11.304zm21.744-64.512l-.72-.72.288-1.584.288-1.728.288-1.44.288-2.016.288-1.872.144-2.16.72-2.304.144-1.44.288-1.728.144-1.872.576-1.728.144-1.584.864-.432 2.16.144h1.008l1.728.288 1.44.72.576 1.152.144.72h-1.584l-1.584.288-1.152 1.008-.576 2.304v1.872l-.432 1.728-.576 1.44-.432 2.304v2.16l-.432 1.872-.72 3.456-.288.72-1.296.432h-1.728zm74.88 64.656l-1.872-.144h-2.16l-.576-.432-.288-1.44v-1.008l1.44.144 1.44-.144 1.008-.144 1.728.144h1.152l3.168-.144h2.016l1.152.144 1.008-.144c.576 0 1.008.144 1.584 0 .72-.432.576-1.728.432-2.304v-3.024l-.144-3.168v-1.296l-.144-1.152.144-2.016v-2.16l-.144-1.008-.144-1.872v-.864l-.288-5.472.144-1.008-.144-2.016.144-2.16-.144-2.16v-1.008l-.144-6.624v-4.32l-.144-1.152-.144-1.728v-5.616l-.288-1.584-.144-2.304v-.864l-.144-1.872.144-.864-.144-2.016v-2.88l-.288-2.016V36.04l.144-1.008-.144-2.16v-2.016l-.288-2.88-.144-1.872v-2.016l-.144-5.184v-2.592l-.288-.864V12.28l-.288-4.32h1.728l1.152.288.864.72.432 6.192v2.016l.288 2.016v2.592l.144 5.184v2.016l.144 1.872.288 2.88v2.016l.144 2.16-.144 1.008v3.168l.288 2.016v2.88l.144 2.016-.144.864.144 1.872v.864l.144 2.304.288 1.584v5.616l.144 1.728.144 1.152v4.32l.144 6.624v1.008l.144 2.16-.144 2.16.144 2.016-.144 1.008.288 5.472v.864l.144 1.872.144 1.008v2.16l-.144 2.016.144 1.152v1.296l.144 3.168v3.024c.144.576.288 1.872-.432 2.304-.576.144-.864 0-1.44 0l-1.584.144-1.152-.144h-2.016l-3.168.144h-1.152l-1.728-.144-1.008.144-1.44.144zm-18.144-43.2l-.432-.576.72-2.304.432-1.008.288-1.152.576-2.16.432-1.584 1.152-2.88.72-.144v2.592l-.864 9.216h-3.024zm-16.704 43.2l-2.16-.144-1.008-.144-10.512-.144-1.296-.288-.288-1.152.288-1.008v-.432l8.352.144 1.008.144 2.16.144 1.152-.144 4.032.144.864-.576.576-1.008.432-.72.432-1.584.864-2.16 1.44-2.736.576-1.728.432-1.008.288-1.008 1.008-1.872.72-1.584h3.888l5.04.144 1.584.144v2.448l-.432.288h-2.304l-4.608-.144-1.008 1.296-1.008 2.16-.288 1.008-.432 1.008-.576 1.728-1.008 2.448-.864 2.16-.576 1.872-.288.72-.576 1.008-.72.576-4.032-.144-1.152.144zm82.8.864l-2.448-.144h-2.736l-1.008-.288-1.296-.288-2.448-.432-1.008-.432-1.152-.576-1.872-1.152.432-1.008 2.016.72 1.008.144 1.008.288 3.456.144 2.448.288 2.88-.144h2.448l5.904-.576.864-.288 1.296-.288 1.44-.576.864-.288 2.304-.864.72-.576 1.728-.864 1.152-.72 1.296-.72 1.152-1.44 1.296-1.008.864-1.152.864-1.296.72-1.008.576-1.008.864-1.872.576-.864 1.008-1.872.432-1.872.72-.864.432-2.448.576-1.872.576-1.728.288-1.008.288-.864v-1.008l.288-1.296.432-1.584.288-1.008v-.864l.432-1.872.576-1.728v-.288l.432-2.016.144-1.008.576-2.016.432-1.872.288-1.728.144-1.872.576-1.152.288-2.016v-1.008l.576-2.016.144-2.016.288-2.016.144-.864.432-2.016v-.864l.432-2.16 1.008-3.168-.144-1.008.288-1.008.144-.864.288-1.008V34.6l.432-1.728.288-1.296.432-1.296.288-1.296.432-1.584v-.864l.576-1.728-.144-.864.576-1.872.144-1.008.288-1.152.144-1.008.576-2.016.144-1.152.288-2.016.288-1.152.144-2.16.864-2.016V7.96l1.152-.144 1.152.144 1.152 1.152.144 2.16-.864 2.016-.144 2.16-.288 1.152-.288 2.016-.144 1.152-.576 2.016-.144 1.008-.288 1.152-.144 1.008-.576 1.872.144.864-.576 1.728v.864l-.432 1.584-.288 1.296-.432 1.296-.288 1.296-.432 1.728v1.008l-.288 1.008-.144.864-.288 1.008.144 1.008-1.008 3.168-.432 2.16v.864l-.432 2.016-.144.864-.288 2.016-.144 2.016-.576 2.016v1.008l-.288 2.016-.576 1.152-.144 1.872-.288 1.728-.432 1.872-.576 2.016-.144 1.008-.432 2.016v.288l-.576 1.728-.432 1.872v.864l-.288 1.008-.432 1.584-.288 1.296-.144 1.008-.288.864-.288 1.008-.576 1.728-.576 1.872-.432 1.872-.576 1.44-1.584 3.6-.576.864-1.296 1.872-.576 1.008-.72 1.008-.72 1.152-.864 1.152-1.152 1.008-1.44 1.296-1.296.72-.864.864-1.296.72-1.152.72-2.016.864-.864.288-1.728.432-1.296.288-.864.288-1.152.432-1.44.144-3.312.144-2.16.144-2.88.144zm-2.16-29.52l-1.584-.576-.576-1.44-.144-1.008v-.72l.144-.864v-.864l.432-3.456.432-1.872.144-2.016.432-2.88.72-5.184.288-1.728.576-1.872v-1.872l.432-1.728.288-.864.288-1.008.144-1.152.144-1.296.576-1.296-.288-1.872.144-.864.72-2.016v-1.008l.288-1.152.144-1.008.144-1.44.432-1.008.144-.864.288-2.16.432-2.16.144-1.152.72-2.016.144-1.008v-1.44l.144-1.152.288-1.872.576-1.728v-1.008l.288-.864.144-1.008.288-1.152.288-1.296.288-1.008-.144-2.016.288-1.008.288-.864V7.96l2.16.144 1.296 1.008.144 2.16v2.016l-.288.864-.288 1.008-.288 2.016-.288 1.008-.144 1.296-.288 1.152-.144 1.008-.288.864v1.008l-.576 1.728-.288 1.872-.144 1.152-.144 1.44-.144 1.008-.432 2.016-.144 1.152-.432 2.16-.288 2.16-.144.864-.432 1.008-.144 1.44-.144 1.008-.288 1.152v1.008l-.576 2.016-.144.864v1.872l-.432 1.296-.144 1.296-.144 1.152-.288 1.008-.288.864-.432 1.728v1.872l-.576 1.872-.288 1.728-.72 5.184-.432 2.88-.144 2.016-.432 1.872-.432 3.888-.144.72v1.296l-1.152.144zm71.28.288l-.72-.72v-1.44l.288-1.008.144-.864.144-1.008.144-1.728.432-2.304.144-2.016.288-1.152v-1.008l.576-2.304.144-1.008.144-1.152.432-2.016.144-2.16.576-2.304.144-1.008.432-2.16.288-1.008v-2.016l.288-1.008.432-3.024v-1.152l.288-1.008.432-2.16.432-1.872.432-2.016.288-1.008.144-1.008v-2.304l.576-1.008.288-2.016.576-2.016V27.4l.432-2.016 1.152-5.04.288-1.44.288-1.584.432-3.024.288-.864v-1.008l.864-3.456V7.96h.432l2.88.144.432 1.728-.144 1.008v1.008l-.864 3.456v1.008l-.288.864-.432 3.024-.288 1.584-.288 1.44-1.152 5.04-.432 2.016v1.152l-.576 2.016-.288 2.016-.576 1.008.288 1.152-.288 1.152-.144 1.008-.288 1.008-.432 2.016-.432 1.872-.576 1.008.144 1.152-.288 1.008V49l-.432 3.024-.288 1.008v2.016l-.288 1.008-.432 2.16-.144 1.008-.576 2.304-.144 2.16-.432 2.016-.144 1.152-.144 1.008-.576 2.304v1.008l-.288 1.152-.432 3.312-.288 1.296-.144 1.296-.288 1.44-.144.864H225zm-20.88 28.368l-1.296-.432-.576-.864v-1.296l1.152-.432h4.032l1.44-.144h11.808l2.88-.144 2.016.288 2.16-.144 2.592.144 3.168-.432 1.872-.288h2.736l1.152-1.008.576-2.304.288-2.16.144-.864v-1.008l.432-1.008.72-5.04.432-1.152-.144-1.008.432-.72h2.736l.864.432-.144 2.16-.288 1.008.144 1.008-.432 1.152-.72 5.04-.432 1.008v1.008l-.144.864-.288 2.16-.576 2.448-1.152 1.008h-2.736l-1.872.288-3.168.432-2.592-.144-2.16.144-2.016-.288-2.88.144h-11.808l-1.44.144H207l-1.008-.144-1.872.144zm133.776-55.44l-.576-.576-1.152-.864-1.008-.72.144-.432 1.44-.864.864-.432.72-.576.72-.72.72-.432.432-.576 1.152-1.152 1.152-1.584.864-1.584 1.008-1.44.576-1.296.432-.864.432-1.152.288-.864.144-1.008.144-.432.576-1.008-.144-.864.576-1.872.144-1.008.288-1.872v-.864l.288-1.008.144-.864v-1.008l.144-.864.144-2.16v-2.016l-.432-2.592v-1.008l-.144-1.152-.576-2.016-.288-1.728-.432-.72 1.008-.432 1.44 1.728.864 1.584.288.72.432 1.728.576 2.016.144 1.152.144 2.736.288 1.152.144 1.728-.144 2.16-.144.864v1.872l-.288 1.008v.864l-.288 1.872-.144 1.008-1.008 1.872.144.864-.576 1.008-.144.432-.144 1.008-.432.864-.288 1.008-.432.864-.72 1.152-.864 1.584-1.008 1.44-1.296 1.584-1.152 1.152-.576.432-.576.576-.864.576-.432.576-.864.576-1.152.72-.72.144zm-24.624-15.408l-.288-.288v-1.152l.576-2.448.144-1.584.288-.864.144-1.008.432-1.872v-1.008l.432-1.728.144-1.008.144-1.296.432-1.296v-1.008l1.152-.288h1.584l1.584.144 1.584.288.576 1.44-.432 1.008h-1.728l-1.152.288v1.008l-.432 1.296-.144 1.296-.144 1.008-.432 1.728v1.008l-.432 2.448-.144 1.008-.144.864-.432 1.296-1.008.576-1.296.144h-1.008zm-10.08 70.848l-2.304-.288h-1.152l-2.304.144h-5.904l-.864-.144h-1.152l-2.16-.144-1.296-.144-1.008-1.008.144-1.152.144-.576h1.728l.864.144h5.904l2.304-.144h1.152l2.304.288 2.16-.144h.432l1.152-.144h2.016l1.152.144 1.872.144 3.888-.144 1.008-.144 1.008.144h2.16l2.16-.288 2.736-.432 1.152-.432.864-.144 1.152-.288 1.584-.432 1.152-.576 1.008-.576.864-.432.72-.432 1.008-.72.72-.576.72-.432.864-.72.576-.864 1.008-.72.576-.576 1.008-1.584 1.152-1.584 1.152-1.872 1.152-1.728.576-2.016.432-.864.288-1.008.288-.864.432-2.016.288-1.008.576-1.872.432-2.16.288-2.16.144-1.008v-1.008l-.144-.864.144-1.296.144-1.44v-1.872l-.576-3.744-.432-.864v-1.44l-.432-1.584-.288-1.008 1.008-.432.72 1.008 1.152 2.304.432 1.008.72 1.584.288 1.44v.864l.432 1.872.144 1.872-.144 1.872.288 1.44-.144 1.296v1.008l-.144 1.008v1.008l-.432 2.016-.432 2.16-.576 1.872-.144 1.008-.576 1.584-.432 1.152-.432 1.008-.432.864-.288 1.152-.576 1.152-.864 1.296-1.008 2.016-1.296 1.728-1.872 1.872-.864 1.008-.72.576-.72.72-1.44.864-.72.576-.72.432-1.008.432-.72.432-1.152.576-1.44.576-1.008.432-.864.288-1.296.288-1.44.288-1.152.288-4.176.576-1.008-.144-1.008.144-3.888.144h-1.872l-1.152-.144h-2.016l-1.152.144h-.432l-2.16.144zm4.896-26.928l-1.44-.288-1.152.144.288-1.728v-1.008l.288-.864.288-1.44.288-2.016.144-1.152.288-.864v-1.008l.288-1.008.288-2.16.288-.576.288-1.152.288-2.592.432-1.296h2.016l1.872.144h.72l1.44.432.72.432.864.864.144 1.152h-1.584l-1.152-.144h-1.872l-.432 1.296-.288 2.592-.288 1.152-.288.576-.288 2.16-.288 1.008v1.008l-.144.864-.288 1.584-.144.72-.288 1.008-.432 1.872-.864.288zm89.28 26.928l-1.872-.144h-2.16l-.576-.432-.288-1.44v-1.008l1.44.144 1.44-.144 1.008-.144 1.728.144h1.152l3.168-.144h2.016l1.152.144 1.008-.144c.576 0 1.008.144 1.584 0 .72-.432.576-1.728.432-2.304v-3.024l-.144-3.168v-1.296l-.144-1.152.144-2.016v-2.16l-.144-1.008-.144-1.872v-.864l-.288-5.472.144-1.008-.144-2.016.144-2.16-.144-2.16v-1.008l-.144-6.624v-4.32l-.144-1.152-.144-1.728v-5.616l-.288-1.584-.144-2.304v-.864l-.144-1.872.144-.864-.144-2.016v-2.88l-.288-2.016V36.04l.144-1.008-.144-2.16v-2.016l-.288-2.88-.144-1.872v-2.016l-.144-5.184v-2.592l-.288-.864V12.28l-.288-4.32h1.728l1.152.288.864.72.432 6.192v2.016l.288 2.016v2.592l.144 5.184v2.016l.144 1.872.288 2.88v2.016l.144 2.16-.144 1.008v3.168l.288 2.016v2.88l.144 2.016-.144.864.144 1.872v.864l.144 2.304.288 1.584v5.616l.144 1.728.144 1.152v4.32l.144 6.624v1.008l.144 2.16-.144 2.16.144 2.016-.144 1.008.288 5.472v.864l.144 1.872.144 1.008v2.16l-.144 2.016.144 1.152v1.296l.144 3.168v3.024c.144.576.288 1.872-.432 2.304-.576.144-.864 0-1.44 0l-1.584.144-1.152-.144h-2.016l-3.168.144h-1.152l-1.728-.144-1.008.144-1.44.144zm-18.144-43.2l-.432-.576.72-2.304.432-1.008.288-1.152.576-2.16.432-1.584 1.152-2.88.72-.144v2.592l-.864 9.216h-3.024zm-16.704 43.2l-2.16-.144-1.008-.144-10.512-.144-1.296-.288-.288-1.152.288-1.008v-.432l8.352.144 1.008.144 2.16.144 1.152-.144 4.032.144.864-.576.576-1.008.432-.72.432-1.584.864-2.16 1.44-2.736.576-1.728.432-1.008.288-1.008 1.008-1.872.72-1.584h3.888l5.04.144 1.584.144v2.448l-.432.288h-2.304l-4.608-.144-1.008 1.296-1.008 2.16-.288 1.008-.432 1.008-.576 1.728-1.008 2.448-.864 2.16-.576 1.872-.288.72-.576 1.008-.72.576-4.032-.144-1.152.144zm80.352-28.368l-.72-.72v-1.44l.288-1.008.144-.864.144-1.008.144-1.728.432-2.304.144-2.016.288-1.152v-1.008l.576-2.304.144-1.008.144-1.152.432-2.016.144-2.16.576-2.304.144-1.008.432-2.16.288-1.008v-2.016l.288-1.008.432-3.024v-1.152l.288-1.008.432-2.16.432-1.872.432-2.016.288-1.008.144-1.008v-2.304l.576-1.008.288-2.016.576-2.016V27.4l.432-2.016 1.152-5.04.288-1.44.288-1.584.432-3.024.288-.864v-1.008l.864-3.456V7.96h.432l2.88.144.432 1.728-.144 1.008v1.008l-.864 3.456v1.008l-.288.864-.432 3.024-.288 1.584-.288 1.44-1.152 5.04-.432 2.016v1.152l-.576 2.016-.288 2.016-.576 1.008.288 1.152-.288 1.152-.144 1.008-.288 1.008-.432 2.016-.432 1.872-.576 1.008.144 1.152-.288 1.008V49l-.432 3.024-.288 1.008v2.016l-.288 1.008-.432 2.16-.144 1.008-.576 2.304-.144 2.16-.432 2.016-.144 1.152-.144 1.008-.576 2.304v1.008l-.288 1.152-.432 3.312-.288 1.296-.144 1.296-.288 1.44-.144.864h-2.88zm-20.88 28.368l-1.296-.432-.576-.864v-1.296l1.152-.432h4.032l1.44-.144h11.808l2.88-.144 2.016.288 2.16-.144 2.592.144 3.168-.432 1.872-.288h2.736l1.152-1.008.576-2.304.288-2.16.144-.864v-1.008l.432-1.008.72-5.04.432-1.152-.144-1.008.432-.72h2.736l.864.432-.144 2.16-.288 1.008.144 1.008-.432 1.152-.72 5.04-.432 1.008v1.008l-.144.864-.288 2.16-.576 2.448-1.152 1.008h-2.736l-1.872.288-3.168.432-2.592-.144-2.16.144-2.016-.288-2.88.144h-11.808l-1.44.144h-4.032l-1.008-.144-1.872.144zm71.568-28.368l-.72-.72v-1.44l.288-1.008.144-.864.144-1.008.144-1.728.432-2.304.144-2.016.288-1.152v-1.008l.576-2.304.144-1.008.144-1.152.432-2.016.144-2.16.576-2.304.144-1.008.432-2.16.288-1.008v-2.016l.288-1.008.432-3.024v-1.152l.288-1.008.432-2.16.432-1.872.432-2.016.288-1.008.144-1.008v-2.304l.576-1.008.288-2.016.576-2.016V27.4l.432-2.016 1.152-5.04.288-1.44.288-1.584.432-3.024.288-.864v-1.008l.864-3.456V7.96h.432l2.88.144.432 1.728-.144 1.008v1.008l-.864 3.456v1.008l-.288.864-.432 3.024-.288 1.584-.288 1.44-1.152 5.04-.432 2.016v1.152l-.576 2.016-.288 2.016-.576 1.008.288 1.152-.288 1.152-.144 1.008-.288 1.008-.432 2.016-.432 1.872-.576 1.008.144 1.152-.288 1.008V49l-.432 3.024-.288 1.008v2.016l-.288 1.008-.432 2.16-.144 1.008-.576 2.304-.144 2.16-.432 2.016-.144 1.152-.144 1.008-.576 2.304v1.008l-.288 1.152-.432 3.312-.288 1.296-.144 1.296-.288 1.44-.144.864h-2.88zm-20.88 28.368l-1.296-.432-.576-.864v-1.296l1.152-.432h4.032l1.44-.144h11.808l2.88-.144 2.016.288 2.16-.144 2.592.144 3.168-.432 1.872-.288h2.736l1.152-1.008.576-2.304.288-2.16.144-.864v-1.008l.432-1.008.72-5.04.432-1.152-.144-1.008.432-.72h2.736l.864.432-.144 2.16-.288 1.008.144 1.008-.432 1.152-.72 5.04-.432 1.008v1.008l-.144.864-.288 2.16-.576 2.448-1.152 1.008h-2.736l-1.872.288-3.168.432-2.592-.144-2.16.144-2.016-.288-2.88.144h-11.808l-1.44.144h-4.032l-1.008-.144-1.872.144zm96.192 0L567 108.76h-2.16l-.576-.432-.288-1.44v-1.008l1.44.144 1.44-.144 1.008-.144 1.728.144h1.152l3.168-.144h2.016l1.152.144 1.008-.144c.576 0 1.008.144 1.584 0 .72-.432.576-1.728.432-2.304v-3.024l-.144-3.168v-1.296l-.144-1.152.144-2.016v-2.16l-.144-1.008-.144-1.872v-.864l-.288-5.472.144-1.008-.144-2.016.144-2.16-.144-2.16v-1.008l-.144-6.624v-4.32l-.144-1.152-.144-1.728v-5.616l-.288-1.584-.144-2.304v-.864l-.144-1.872.144-.864-.144-2.016v-2.88l-.288-2.016V36.04l.144-1.008-.144-2.16v-2.016l-.288-2.88-.144-1.872v-2.016l-.144-5.184v-2.592l-.288-.864V12.28l-.288-4.32h1.728l1.152.288.864.72.432 6.192v2.016l.288 2.016v2.592l.144 5.184v2.016l.144 1.872.288 2.88v2.016l.144 2.16-.144 1.008v3.168l.288 2.016v2.88l.144 2.016-.144.864.144 1.872v.864l.144 2.304.288 1.584v5.616l.144 1.728.144 1.152v4.32l.144 6.624v1.008l.144 2.16-.144 2.16.144 2.016-.144 1.008.288 5.472v.864l.144 1.872.144 1.008v2.16l-.144 2.016.144 1.152v1.296l.144 3.168v3.024c.144.576.288 1.872-.432 2.304-.576.144-.864 0-1.44 0l-1.584.144-1.152-.144h-2.016l-3.168.144h-1.152l-1.728-.144-1.008.144-1.44.144zm-18.144-43.2l-.432-.576.72-2.304.432-1.008.288-1.152.576-2.16.432-1.584 1.152-2.88.72-.144v2.592l-.864 9.216h-3.024zm-16.704 43.2l-2.16-.144-1.008-.144-10.512-.144-1.296-.288-.288-1.152.288-1.008v-.432l8.352.144 1.008.144 2.16.144 1.152-.144 4.032.144.864-.576.576-1.008.432-.72.432-1.584.864-2.16 1.44-2.736.576-1.728.432-1.008.288-1.008 1.008-1.872.72-1.584h3.888l5.04.144 1.584.144v2.448l-.432.288h-2.304l-4.608-.144-1.008 1.296-1.008 2.16-.288 1.008-.432 1.008-.576 1.728-1.008 2.448-.864 2.16-.576 1.872-.288.72-.576 1.008-.72.576-4.032-.144-1.152.144zm101.232-68.976l-2.016-.144h-2.016l-1.152-1.008-.144-1.44.576-.432h9.216l2.592-.144 1.152-1.44 1.152-2.448.576-4.032.144-2.448-.144-2.88.144-2.16v-1.008l-.144-2.304-.144-1.152-.288-1.008-.432-1.584-.144-1.152-.576-1.296-.288-.576.864-.288.864 1.152.864 1.584.432.72.72 1.872.432 1.008.288 1.296.432 1.296.288 1.152.288 2.16v3.168l.144 2.88-.144 2.448-.72 3.6-1.008 2.592-1.44 1.872-2.304.144h-8.064zM621.432 38.2l-.864-1.008-.576-1.152-1.152-1.728-1.296-2.448-.576-1.296-.576-1.728-.288-2.016.144-1.44v-1.008l.576-1.44.144-1.008.576-1.152 1.008-.864 1.008-.144 1.008.576.72.864-.576 1.152-.576 1.44-.576 2.016-.288 1.44v2.448l.576 2.016.576 1.872.432 1.008 1.008 2.736.288.432-.72.432zm-6.624 72.432l-1.728-.144h-2.448l-1.584-.144-1.44-.288-3.456-1.008-1.584-.576-2.016-1.008.144-1.008 2.304.72 1.008.288 1.44.288h1.584l1.44.144 1.008.144h1.728l1.728.144 1.584-.144 1.008-.144h1.584l1.008-.144 1.296-.432 1.008-.144 1.872-.576 1.152-.144 2.16-.72.864-.576 1.728-.432 1.296-1.008 1.44-.864 1.152-1.008.72-.576 1.152-1.296.72-.576.72-1.44.864-.576 1.296-2.448.72-2.016.288-1.296.288-1.152.576-1.872.288-2.16v-1.008l.432-1.872.288-2.16v-1.872l.144-1.008-.144-1.008.144-.864.144-2.016-.288-.864V71.32l-.144-1.008-.144-1.152-.144-1.008-.72-3.312-.864-2.592 1.152-.72.576.72.432.72.576 1.44.72 1.728.864 1.872.864 3.024v1.008l.144 1.152.144 1.008.288 1.584v3.744l-.144.864.144 1.008-.144 1.008-.288 1.872v2.16l-.432 2.016-.144.864-.432 2.016-.864 3.168-.432 1.296-.72 1.584-1.296 2.16-.864 1.008-.72 1.296-.72.576-1.152 1.296-.72.576-1.152 1.008-1.296.864-2.88 1.728-1.008.288-2.016.72-1.008.576-1.872.432-1.008.144-1.296.144-1.008.144-1.584.144-1.008.144-1.584-.144-1.728.144zm-4.752-26.496l-1.296-1.008-1.008-2.16-.144-1.44V77.8l.144-1.008v-4.176l1.152-.288h1.296l.864.72v3.168l-.144 3.024v3.168l.432 1.44-1.296.288z"/><path d="M39.672 2.2l2.304.864 1.728 1.728 3.456 2.304 4.464 3.6 1.728 1.152 2.736 2.88 2.736 1.872 4.752 4.032 3.168 2.736-.144 1.44-3.312-2.736-2.88-2.16-2.592-2.304-11.376-9.36-5.472-4.032L39.672 2.2zm-8.064.144l3.744 2.016 9.504 8.208 5.328 3.888 6.336 5.04 2.016 2.016 3.888 2.736 2.592 2.448 1.296 1.152v1.296l-3.168-2.304-3.312-3.024-2.016-1.44-4.752-3.744-3.6-2.88-5.04-3.888-7.488-6.048-4.752-4.032-.576-1.44zm-9.072.288l2.16.288 3.888 3.168 11.52 9.504 2.88 2.448 3.456 2.592 2.448 1.584 1.872 1.872 3.168 2.592 3.168 2.304 5.616 4.32 2.736 3.024-.288.864-2.736-2.16-2.304-1.728-2.592-2.016-2.88-2.304-2.16-2.016-2.736-2.016-2.016-1.584-2.88-2.448-1.728-1.296-2.304-1.584-2.016-2.016-3.168-2.304-2.592-2.16-2.736-2.16-2.592-2.016-3.6-3.168-1.152-.72-.576-.576.144-.288zm25.92.288h2.016l4.464 3.456L59.4 9.688l4.032 3.6 2.736 2.88-.144 1.008-1.44-1.152-2.448-2.304-5.04-3.888-4.032-3.024-2.304-2.16-2.304-1.728zm-12.96 15.984l-.864.576-7.488-5.76-1.152-1.296-3.312-2.16-3.024-2.16-3.024-3.024.144-.864 3.6 2.736 4.032 3.024 2.16 1.296 2.016 2.16 3.744 2.736 3.168 2.736zm-2.88 4.608l.144.864-.72.144-3.888-3.168-6.624-4.896-2.88-2.448-3.024-3.312.288-.864 3.456 3.024 3.6 3.024 3.312 2.592 3.168 2.304 3.168 2.736zM14.472 17.32l-.144-.72.432-.288.72.144 3.024 2.88 3.024 2.304 4.032 3.168 3.312 2.88 2.592 2.592-.288.864-2.88-2.016-5.04-4.752-5.904-4.176-2.88-2.88zm15.984 18.576v1.296l-3.312-2.448-5.904-4.464-5.472-4.32-2.736-2.736.576-.864 2.736 2.304 2.88 2.16 2.736 2.304 8.496 6.768zm33.408 6.048l.144.576-.576.432-1.152-.864-5.328-4.608-5.04-3.744-2.592-2.16-2.88-3.024.288-1.008 1.152 1.152 4.464 3.456 5.76 4.896 3.744 2.592L63 41.08l.864.864zm-34.272 0v1.008l-.144.432-9.792-7.2-5.184-4.32-2.16-2.448.288-1.008L15.768 31l3.168 2.448 5.184 4.32 3.744 3.168 1.728 1.008zm18.864-4.032l-3.168-2.736.288-.864 4.32 2.88 6.192 5.184 2.88 2.16 3.168 2.88-.576.576-3.6-2.448-3.6-2.736-5.904-4.896zM11.304 36.04v-.864l.576-.288 5.472 4.608 2.448 2.16 2.592 1.872 5.472 4.032 5.184 4.608 2.736 2.16 7.488 5.616 3.024 2.592 1.44.864-1.44.576-2.304-1.584-4.032-3.024-7.776-6.48-3.024-2.016-2.592-2.448-2.736-2.304-2.736-1.872-5.04-4.032-2.448-2.016-2.304-2.16zm48.24 15.84l-.144.864-.72.288-2.592-2.16-5.184-4.176-2.448-1.584-3.312-2.736-1.296-1.152v-.864l.432-.288 2.16 1.44 5.184 4.176 5.472 4.176 2.448 2.016zm-49.248-10.8l2.448 1.728 3.168 2.016 1.728 1.584 9.072 7.632 2.88 2.16 3.168 2.304 4.752 4.032 2.88 2.592-.72.432-4.608-3.456-3.888-2.592-2.736-2.592-2.88-2.16-2.736-2.16-3.024-2.88-3.456-2.448-4.176-3.6-1.728-1.152-.144-1.44zm30.528 3.456l.576-.288 2.736 2.016 3.6 3.6 5.04 3.888 3.168 2.88-.576 1.008-3.888-2.736-2.88-2.736-5.616-4.608-2.448-2.304.288-.72zM32.76 65.56l-1.584.288-4.896-3.888-4.032-2.88-2.016-2.016-2.304-1.44-2.736-2.016-3.456-3.168-2.304-2.88.144-.72 1.728 1.152 3.888 3.6 2.88 2.304 3.744 2.736 1.296 1.44 3.6 2.592 2.736 2.304 3.312 2.592zm1.872-18h1.584l3.312 2.736 3.024 2.304 6.48 5.04 3.456 2.592-.288.864-1.728-.432-4.176-3.456-10.944-8.64-.864-.864.144-.144zm-8.928 19.584v.72l-.576.576-.432-.576L14.184 59.8l-2.736-2.592-3.168-3.312.432-.864 5.616 5.04 9.072 6.912 2.304 2.16zm-1.296 5.76l.144.432-.144.576-.576.144-3.024-2.448-4.464-3.312-4.032-3.312-2.592-1.872-2.736-2.88.432-.72 3.168 2.448 3.168 2.592 5.472 4.32 2.448 1.584 2.736 2.448zM6.264 65.992l.288-.288 3.024 2.448 6.624 5.184 7.344 6.336-.576.864-3.744-3.024-3.312-2.592-5.04-4.032-3.456-2.592-1.296-1.584.144-.72zm-1.296 7.056l.144-1.152 6.912 5.184 6.048 4.752 4.176 3.744-.576.864-3.024-2.304-2.88-2.592-3.168-2.16-7.632-6.336zm15.984 18.576l.144 1.008-.432.288-1.44-1.008-3.312-2.88-4.032-3.456-7.632-5.904-.288-2.448.72.72 1.728 1.872 2.736 1.728 3.744 3.168 2.448 1.872 3.312 2.736 1.44 1.296.864 1.008zm-18.432-7.2l.432-.72 3.456 3.024 3.6 3.024 3.168 2.16 6.048 5.184.72 1.008-.432.72-2.016-1.296-5.616-4.896-3.6-2.592-4.32-3.888-1.44-1.728zm15.696 18.144l-1.872.432-4.752-3.456-2.88-2.448-3.456-2.448-1.728-1.872-2.16-2.016.288-.576 2.448 1.152 2.016 2.448 3.456 2.304 2.88 2.448 4.032 3.024 1.728 1.008zm-9.792-.144v.864L6.984 103l-1.728-1.44-2.88-2.736-2.16-1.872.144-.864.432.288 3.456 2.448 4.176 3.6zM112.392 5.656l-1.008.864-5.616-4.32.288-.288 1.728.288 2.448 1.584 2.16 1.872zM97.704 2.344l.72-.144 1.44-.144 2.88 2.592 2.88 2.736 5.184 3.744 2.16 2.448v.864l-3.312-2.448-11.952-9.648zm15.84 19.008l-.288.432h-.576l-3.024-2.736-3.024-2.448-4.752-4.032-4.608-3.312-3.6-3.312-1.44-1.728.864-.576 2.016 2.016 4.032 3.312 8.352 6.336 3.888 3.6 1.728 1.728.432.72zm.144 6.192l-2.592-.432-2.736-2.016-5.76-4.752-4.032-3.024-3.168-3.024-2.592-2.16-2.88-2.592.432-.72 3.168 2.304 3.024 2.304 3.888 3.888 4.032 2.736 5.184 4.32 4.032 3.168zm.144 7.344v.864l-.576.432-1.44-1.296-3.456-3.024-3.312-2.16-1.728-1.728-2.304-1.728-8.352-6.624-2.592-2.304-2.736-2.592.72-.432 3.168 2.448 3.024 2.304 4.608 3.888 3.024 2.16 2.448 1.872 2.16 2.016 4.176 3.024 3.168 2.88zm0 7.344l.288.864-.432.288-6.624-5.616-4.608-3.456-5.616-4.32-6.048-5.184-4.176-3.456-1.44-1.008.72-.576 3.168 1.728 5.04 4.32 5.04 4.176 3.168 2.448 3.024 2.448 5.328 4.176 2.592 2.304.576.864zm.432 6.912l.288 1.296-.288.144-3.312-2.304-3.168-2.592-5.616-4.752-2.88-2.16-2.736-2.16-5.184-3.888-5.328-4.464-3.312-2.88.864-.72 2.736 2.16 2.592 2.016L91.512 31l5.616 4.176 6.048 4.896 2.88 2.448 4.464 3.6 2.016 1.584 1.728 1.44zM80.856 29.848l.288-.288 1.44 1.152 2.88 2.016 3.456 2.88 4.032 3.312 1.728 2.016-.576.72-3.168-2.592-4.032-3.456-3.6-2.736-2.448-2.304v-.72zm-2.16 5.616l2.736 1.44 2.448 2.16 5.76 4.32 3.168 3.168-.576.864-1.44-1.296-1.872-1.872-7.344-5.472-3.024-2.736.144-.576zm11.664 15.12l.576 1.44-.432.432-1.872-1.44-3.744-2.736-5.184-4.32-3.312-3.168.72-.72 3.312 2.88 3.168 2.592 4.464 3.6 2.304 1.44zm24.048 5.76l.144 1.152-3.024-1.584-5.328-4.896-4.896-3.888-2.88-2.16-1.296-1.44v-1.44l3.456 2.592 6.336 5.04 2.736 2.736 3.456 2.736 1.296 1.152zm-24.912.576l-.144.288-.288 1.152-2.592-1.728-2.448-2.016L81.72 52.6l-3.744-3.024-2.736-2.16-.864-.72.144-1.152 3.024 1.872 2.448 2.016 2.592 2.448 2.16 1.872 2.88 2.16 1.584.864.288.144zm25.344 6.48l-.72 1.008-5.616-4.608-5.328-3.888-2.592-2.16-3.168-2.448-.432-1.44.144-.864 3.312 2.736 5.616 4.752 2.448 1.872 2.736 2.016 3.6 3.024zm-27.36-1.152v.432l-.432.72-2.736-1.584-2.448-1.872-7.632-6.336-1.44-1.152-.576-.576.288-1.296 1.008.432 2.736 2.592 2.448 2.16 3.888 3.168 3.168 1.872 1.728 1.44zm27.936 29.376l-.288 1.872-5.04-3.888-5.76-5.184-4.464-2.88-9.504-7.92-3.024-2.592-3.6-2.448-3.024-2.736-3.744-3.168-2.304-1.872-2.592-2.016-1.728-2.016.432-.72 2.304 2.16 8.496 6.48 3.024 2.592 2.88 2.304 2.736 2.16 2.88 2.16 2.448 2.304 4.464 3.744 4.896 3.456 3.024 2.304 4.176 4.032 3.312 1.872zM96.552 57.352v-.72l.576-.144 1.728 1.296 2.448 2.016 3.888 2.88 5.04 4.032 3.168 2.88 1.44 1.728.144.864-2.304-1.728-5.472-4.176-4.32-3.6-3.312-2.304-2.736-2.448-.288-.576zm19.152 42.192l-1.008.432-3.888-2.88-2.736-2.16-2.448-2.16-5.184-4.032-5.904-4.896-5.328-3.888-3.312-3.024-5.184-4.176-3.312-2.592-5.328-4.464-2.88-1.728-1.152-1.152.72-.864 2.016 1.152 2.592 1.728 3.024 2.736 2.448 2.16 2.592 2.16 4.464 3.024 4.32 4.032 4.896 3.744L99 85.864l5.04 4.464 5.76 4.464 2.448 1.872 3.456 2.88zm-.576-21.168l-.72.432-2.448-2.016-3.168-2.16-1.728-1.728-3.168-2.736-5.04-3.744-2.304-2.592.288-.72 7.92 6.048 5.328 4.608 3.744 2.592 1.296 1.008v1.008zm-23.472 8.352l-1.584.144-4.464-3.024-2.736-2.448-8.064-5.904-5.328-4.608-3.456-3.312.288-1.008 3.024 2.448 2.592 2.016 2.736 2.304 2.592 2.448 3.456 2.304 3.024 2.16 5.184 4.32 2.736 2.16zm1.728-17.424l1.296-1.008 4.608 4.176 6.336 4.896 2.16 1.728 2.736 1.584 2.16 2.16 2.592 2.88-.144 1.152-2.88-2.736-3.456-2.736-1.584-1.152-3.024-2.16-2.304-1.728-3.888-3.6-2.448-2.016-2.16-1.44zM82.296 86.296l-1.584.288-3.6-2.592-4.896-4.032-2.88-1.872-2.592-2.592-3.024-2.16.288-.72.144-.288 3.456 2.16 2.592 2.736 3.312 2.16 5.76 4.752 3.024 2.16zm-3.888 3.888l.144.432-.288.432-.72.288-3.6-3.024-3.888-3.024-2.88-1.728-3.312-3.312-2.016-2.16.576-.576 3.024 2.448 4.608 3.888 5.328 3.744 3.024 2.592zm-2.592 5.472v.72l-.288.576-2.736-2.304-2.736-2.16-4.896-4.032-4.032-3.168-1.584-2.016.576-.72 2.448 1.872 4.896 4.32 2.88 2.304 2.592 2.304 2.88 2.304zM73.8 100.84l-.144.864-1.872-.864-3.6-3.168-2.592-1.872-3.168-2.016-2.592-2.736-2.448-2.16.144-.576.288-.432 2.736 2.16 3.024 2.592 3.168 2.304 2.592 1.728 3.168 3.168 1.296 1.008zm22.464-8.64l.288-.864 8.64 6.336 6.48 5.04-2.16-.288-3.744-2.592-2.448-1.872L99 94.792 96.264 92.2zm-30.384 8.928v1.296l-4.464-2.88-3.024-2.304-3.168-3.024.288-.72 1.872 1.44 4.176 3.168 4.32 3.024zM58.824 103l-2.736-.72-2.304-1.872-1.008-1.872.576-.432L58.824 103zm43.776-.288l-1.584.576-2.88-2.448-1.872-1.44-.144-1.296 6.48 4.608zM182.808 2.488l.288-.288 2.016.144 4.32 3.312 4.608 4.032 2.16 2.592-.144.576-4.032-2.88-3.6-3.312-3.168-2.448-2.448-1.728zm-34.704 0l1.44-.144 4.032 3.024 2.736 2.304 3.024 2.88-.144 1.008-2.016-1.728-5.472-4.176-3.6-3.168zm8.208 0l2.016-.144 1.44 1.44.288 1.728-3.744-3.024zm35.712-.144h1.44l4.176 3.744-.864.576-2.592-2.16-2.16-2.16zm-51.552.288l.72-.144 3.888 2.88 10.224 8.496 3.024 2.016-.576 1.296-.432-.576-3.168-1.872-2.736-2.448-5.184-4.176-2.304-1.728-3.024-2.448-.576-.576.144-.72zm53.856 14.112l.864.864-.432 1.152-2.016-1.296-3.888-3.456-3.024-2.304-5.328-4.176-2.88-2.736-1.152-1.44.72-.72 2.88 2.592 6.048 5.184 5.76 4.32 2.448 2.016zm-37.152 6.48l-2.592-1.44-2.16-2.16-10.08-7.776-3.6-3.6.432-.864 3.024 2.592 4.32 3.6 4.032 2.88 4.176 3.456 2.16 2.16.288 1.152zm36.72.432v1.008l-.576.144-3.312-2.736-2.592-2.304-2.88-2.16-4.896-3.888-3.024-2.88-1.44-1.728.576-.576 2.592 2.448 5.184 4.032 2.592 1.872 5.04 4.32 2.736 2.448zM155.88 28.12l.144.144-.432 1.152-2.16-1.584-2.736-2.592-2.592-1.44-3.312-2.88-5.04-4.176-2.448-2.592.288-.864 3.168 2.592 3.6 3.024 4.896 3.888 2.304 1.584 2.592 2.16 1.728 1.584zm36.432 1.008l.288.288-.288.864-3.888-2.304-11.952-9.504-2.304-2.592v-.864l1.44.72 3.312 2.592 5.04 3.888 5.184 5.04 3.168 1.872zm-37.728 5.76l-2.592-1.008-5.76-4.752-9.072-7.2-.576-1.44.144-1.008 2.592 2.736 2.736 2.16 2.88 1.872 4.752 3.744L153 32.728l1.728 1.296-.144.864zm36.576.576l.288 1.152-.432.144-3.6-2.736-3.6-3.024-2.448-1.584-3.744-3.312-3.312-2.736-1.008-1.584.144-1.008 2.88 2.592 3.6 2.448 2.88 2.88L185.976 31l3.6 3.024 1.584 1.44zm-38.016 6.48l-1.008-1.008-1.44-1.296-3.168-2.736-5.04-4.032-3.6-2.304-1.872-2.16-1.728-1.584.576-.72 1.872 1.152 2.304 2.304 10.08 7.488 3.312 3.456v1.008l-.288.432zm36.72.288l-3.456-2.304-3.744-3.168-2.304-1.44-7.344-5.904-1.008-1.008.288-1.008 3.456 2.304 2.88 2.16 3.024 2.736 2.88 2.448 5.328 4.176v1.008zm-37.008 4.464v.864h-.72l-4.32-3.456-3.744-2.592-6.192-5.328-3.888-3.024.432-.864 3.168 2.16 2.88 2.016 9.936 8.064 2.448 2.16zm36 1.152l.144.864-.432.288-3.456-2.88-10.08-7.92-2.88-2.592-1.008-1.296.288-.72 7.488 6.048 4.752 3.744 3.6 2.88 1.584 1.584zm-55.44-8.208l-.144-.288-.144-.864.72-.288 1.728 1.584 2.016 1.872 2.304 1.584 2.304 2.016 2.448 1.728 2.592 2.304 3.024 2.16 1.296 2.16-.72.432-.432-.144-1.872-2.304-2.88-2.16-1.728-1.44-2.304-1.728-2.448-1.872-2.16-1.872-2.592-2.016-1.008-.864zm54.72 14.544l-.144.576-.432.576-2.88-2.592-5.616-4.464-3.024-2.592-2.448-1.728-2.448-2.16-1.008-1.44.288-.72 1.728 1.44 2.448 1.872 3.312 2.592 2.448 2.16 3.456 2.736 2.448 2.16 1.872 1.584zm-56.016-8.352l.144-.864.288-.432 3.312 2.448 3.168 2.304 1.872 1.728 2.448 2.16 3.6 3.024 3.312 3.024v1.152l-2.16-1.584-3.312-2.736-2.16-2.016-3.312-2.448-4.752-3.744-2.448-2.016zm54.576 14.256l.144.72-.432.72-.864-1.008-2.592-2.16-5.04-3.6-2.88-2.448-3.168-2.448-3.024-3.312.144-.864 9.072 7.344 3.168 2.448 4.464 3.312 1.008 1.296zm-37.152 4.752l.144 1.152-.432.144-2.592-2.304-3.024-2.016-2.016-1.296-9.072-7.632-1.44-1.728.432-.72 3.024 2.448 2.736 2.16 3.168 2.304 1.728 1.728 2.592 1.872 2.592 2.16 2.16 1.728zm18-11.52l-.144-1.008.72-.432 2.88 2.304 6.048 4.752 2.304 1.728 3.312 2.88 2.88 2.88-.432.864-3.024-2.592-4.32-3.6-1.44-.864-2.736-2.448-2.736-2.304-3.312-2.16zm-18.864 18v.72l-.72.432-1.872-1.296-3.312-2.448-1.872-2.16-2.736-1.584-1.872-2.16-3.312-2.448-2.736-2.736.144-.72 2.88 1.872 3.744 2.88 2.304 2.304 2.16 1.296 3.6 3.312 3.6 2.736zm18-13.824l.144.144 1.872 1.584 4.032 3.312 2.592 2.016L178.632 67l4.176 3.6 1.152 1.44-.288.864-3.168-2.592-3.168-2.736-4.032-2.592-5.904-5.04-.864-1.584.144-.864zm-18.144 20.88v1.152l-.288.144-6.048-4.464-8.64-7.344-3.312-2.592-1.008-1.008.144-1.152 2.88 2.16 2.448 2.016 5.328 4.176 2.592 2.16 2.736 2.016 3.168 2.736zm16.848-14.544l.288-.144 1.44 1.152 2.592 2.304 2.88 2.16 6.912 5.904 3.312 2.736-.576.864-3.744-2.736-4.752-3.888-2.016-2.016-3.744-2.736-2.592-3.024v-.576zM128.52 70.6l-.144-.144.288-1.008 1.44.864 3.888 2.88 2.88 2.736 5.904 4.608 2.592 2.448 5.472 4.176 5.184 4.176 2.592 2.448 5.04 3.744 3.312 2.016 1.008 1.152-1.152.576-2.016-1.44-4.464-3.024-2.592-2.304-5.184-4.032-2.304-2.016-5.04-4.032-7.92-6.192-7.344-6.048-1.44-1.584zm52.848 12.96l-.288.432-.72.432-1.152-.72-3.456-3.312-2.592-2.16-3.312-1.872-2.88-2.736-3.024-2.736.288-.864 3.312 2.304 4.032 3.312 1.728 1.008 2.304 1.872 2.448 2.16 2.016 1.872 1.296 1.008zm-2.448 4.896l-.288.576-.576.288-2.88-2.16-2.592-2.304-5.328-3.888-2.448-1.872-2.448-2.736.432-.576 3.168 2.304 3.024 2.304 6.336 5.04 3.6 3.024zM127.8 77.224l-.288-1.152.432-.144 2.736 2.016 2.448 1.872 2.592 1.872 3.024 3.024 3.456 2.88 4.176 2.16 5.76 5.472 7.056 5.184 1.296 1.44.576.72-.576.432-8.208-5.76-2.736-2.592-4.896-4.176-3.024-1.872-2.16-1.584L137.016 85l-3.312-3.024-3.888-3.024-2.016-1.728zm48.24 16.416l.144.432-.864.576-2.88-2.592-2.592-2.16-2.736-2.16-2.592-2.16-4.032-2.736-.576-1.584.576-.576 7.92 6.048 4.608 4.32 3.024 2.592zM127.8 83.56l.144-1.584 7.776 7.056 2.88 2.16 11.52 9.072 3.456 3.168-1.152.144-3.888-2.88-8.928-6.48-5.76-5.184-2.736-2.304-3.312-3.168zm26.352.72l.288-1.152 6.336 4.464 2.448 2.448 2.592 1.44 3.168 3.024 3.888 3.168-.72.72-3.744-2.88-3.456-2.88-3.312-2.016-2.736-2.592-4.752-3.744zm-10.512 17.856l-1.008.432-4.608-2.88-7.2-6.192v-1.584l2.736 2.304 2.592 2.016 3.6 2.88 3.888 3.024zm71.568-99.792l1.152.144 2.592 2.736 2.592 1.584 3.168 3.024 3.744 2.448 1.872 1.872 1.872 2.016-.432.864-4.176-3.6-3.6-2.592-3.744-3.312-2.16-1.296-2.304-2.016-1.296-1.296v-.432l.72-.144zm9.504 1.584l-1.008-1.584 1.44.144 2.736 2.16 2.592 2.16 2.592 3.024-.288.864-3.024-2.592-5.04-4.176zm6.192 17.712v.72l-.576.576-2.16-1.728-2.016-2.016-3.168-2.016-2.736-2.448-4.752-4.176-2.448-2.592v-.864l1.44 1.008 4.032 3.312 5.616 4.896 3.6 2.448 3.168 2.88zm-1.296 5.904l-.144 1.152-3.744-2.592-3.168-2.304-2.736-2.448-5.184-4.32-3.024-2.304.432-1.008 3.168 2.16 2.88 2.16 3.888 3.744 4.32 3.024 3.312 2.736zm-.864 6.336l-.144.72-.432.576-1.008-.864-2.736-2.16-2.448-1.872-3.312-3.168-2.736-2.016-4.32-3.312L210.6 20.2l.432-.864 2.88 2.592 5.904 4.32 3.888 3.6 3.168 2.16 1.872 1.872zm-19.008-8.64l3.744 3.024 5.328 4.464 2.736 2.016 2.592 2.304 2.88 3.312v.72l-.72-.432-6.336-5.184-2.88-2.592-5.04-3.888-2.16-1.728-.288-1.152.144-.864zm-1.008 7.2l2.448 1.008 2.304 2.16 2.736 2.016 2.592 2.016 2.448 2.016 3.456 3.168 1.44 1.152v.864l-.288.576-2.592-2.016-4.608-4.032-5.904-4.608-2.16-2.016-1.872-1.44v-.864zm16.992 19.728l-.432.864-.432.288-3.312-2.448L218.952 49l-3.456-2.736-2.016-2.016-3.744-2.736-2.304-2.592.432-.576 3.312 2.592 3.168 2.016 2.592 2.736 2.736 2.016 2.736 2.16 3.024 2.304h.288zm-1.44 6.336v.288l-.144.72-.432.144-2.88-2.736-2.448-2.016-2.592-2.016-5.76-4.32-3.6-3.312.288-1.008 2.88 2.16 2.736 2.304 5.616 4.176 4.464 3.888 1.872 1.728zm-1.008 5.904l-.144 1.152-.432.144-3.456-2.736-3.168-2.736-2.736-1.872-2.736-2.304-3.168-2.448-2.016-2.736.288-.576 1.152 1.152 2.736 2.16 3.024 2.16 1.44 1.44 3.888 2.592 4.032 3.456 1.296 1.152zm-1.008 6.048l-.144.864-.576.288-1.584-1.44-2.592-1.728-3.168-2.592-5.328-3.888-3.744-3.456-1.008-1.44.288-.72 2.16 1.44 3.312 3.168 5.328 3.744 3.456 3.456 3.6 2.304zm-1.152 6.768l.288.576-.144.576-.576.144-2.736-2.304-2.736-2.016-2.592-2.16-3.744-3.456-6.048-5.04.288-.864 3.312 2.16 2.88 2.448 8.928 7.488 2.88 2.448zm16.56 19.728l-.288.144.144.576-.864.288-3.456-2.88-3.168-2.592L220.68 85l-4.896-3.6-3.024-2.592-2.304-1.872L207 74.2l-3.744-2.736-1.296-1.728.576-.72 3.456 2.448 13.104 10.656 6.048 4.752 6.192 5.04 2.736 2.16 3.312 2.448.288.432zm-3.312 5.184l-.576-.288-3.312-1.584-3.6-3.456-4.752-3.456-4.608-3.744-2.88-2.592-3.744-2.592-4.896-4.32-3.888-2.88-1.296-1.44.432-.72 3.456 2.016 2.88 2.592 5.04 4.464 4.896 3.312 3.024 2.88 3.6 2.736 2.448 2.016 3.024 2.16 1.728 1.872 2.736 1.872 1.152.864-.144.144h-.432l-.288.144zm-8.496-.864v1.296l-3.744-2.304-2.736-1.728-2.016-2.16-4.32-3.024-5.472-4.896-5.616-4.608-2.592-2.304.144-.864 2.016 1.296L205.56 85l3.6 2.88 3.456 3.312 2.448 2.016 3.312 2.16 2.736 2.88 4.752 3.024zm2.016-17.568l.288-.576 1.296.144 3.024 2.592 3.024 2.304 3.024 3.168-.432.864-3.168-2.736-2.88-2.592-4.176-3.168zm7.776-.576h1.728l2.016 1.728-.144.864-1.872-1.296-1.728-1.296zm-17.568 18.864l-.864.576-4.464-2.448-5.472-4.896-2.88-2.16-2.736-2.16-2.88-3.024v-1.008l3.168 2.592 3.024 2.304 5.904 4.896 3.024 2.736 4.176 2.592zm-10.656-1.152v1.584l-4.608-3.6-4.176-3.024-1.152-1.728.432-.864 3.168 2.304 3.744 3.024 2.592 2.304zm-11.376-1.296l.144-.288 2.448 1.44.576 1.872-2.592-1.728-.576-1.296zM302.04 3.064l1.008-.72 4.464 2.88 5.76 4.896 8.496 6.912 4.608 3.456 2.448 2.016 2.16 1.728 2.88 2.736 4.464 3.6 2.448 1.728 2.736 2.736-.432.576-2.592-2.016-2.736-1.728-2.592-2.016-2.448-2.592-3.312-2.592-4.032-2.736-4.752-4.032-2.016-1.584-4.464-3.744-3.168-2.16-2.736-2.736-4.176-3.312-2.016-1.296zm8.208-.576h2.304l3.024 2.304 3.168 3.024 5.04 3.6 2.448 2.16 2.88 2.16 5.76 4.752 3.744 3.456 3.456 2.16 2.592 3.168-.288.576-1.008-.72-3.024-2.736-2.736-1.728-3.312-2.88-4.896-4.032-7.2-5.472-5.184-4.32-4.464-3.888-2.304-1.584zm35.136 21.168l-2.736-1.872-2.592-2.016-2.736-2.304-5.04-4.32-4.032-3.168-2.736-2.304-3.456-2.592-1.44-2.304 3.168 2.16 3.888 2.736 3.312 2.592 2.448 1.872 2.736 2.736 2.304 1.728 4.464 3.456 2.592 2.16-.144 1.44zm-.432-8.64v.864L336.6 9.688l-2.88-2.448-2.88-2.16-2.448-2.304 2.592.576 4.032 3.456 5.04 3.744 3.6 2.736 1.296 1.728zm-29.664 3.6l-1.44.144-2.88-1.872-3.168-2.304-2.16-1.872-3.6-3.024-4.176-2.88-1.44-1.872.288-.72 3.744 2.736 3.6 2.88 2.304 1.728 2.88 2.304 6.048 4.752zm-3.168 4.608l.288.576-.576.576-3.312-2.448-3.456-2.88-3.456-2.448-2.88-2.592-3.024-3.168.432-.576 3.6 2.88 3.168 3.024 3.312 2.16 2.88 2.592 3.024 2.304zm-18-5.76l.144-1.008 1.152.432 3.168 2.736 3.312 2.448 5.904 5.04 3.168 3.024-.432.72-3.024-2.016-5.76-5.184-5.04-4.032-2.016-1.728-.576-.432zm15.84 18.288l.144 1.008-.72.144-3.168-2.448-2.88-2.304-5.904-5.04-3.888-3.168.144-1.152L297 25.24l3.168 2.448 6.336 5.184 3.456 2.88zm15.408-8.352l2.016 1.152 4.176 3.312 4.464 3.456 3.312 2.88 2.16 1.152-.72 1.296-.576-.288-11.088-8.64-2.736-2.592-1.296-.864.288-.864zm-32.976 1.44l2.592 1.872 13.68 10.944 2.736 2.016 5.328 4.32 15.84 12.672 7.776 6.768.144.864-1.152-.144-4.176-3.6-3.312-3.024-3.024-2.016-6.048-4.896-6.048-4.752-10.08-8.064-2.592-2.016-4.896-4.176-4.464-3.456-2.592-2.16.288-1.152zm31.248 5.328v-.288l.144-1.008 3.456 2.592 2.592 1.872 3.312 2.88 3.024 2.304 1.872 1.584-.432.72-2.88-1.44-4.608-4.32-4.608-3.168-1.872-1.728zm16.704 39.312l.144.432v.576l-.576.576-.576-.576-2.592-1.44-1.872-2.016-3.6-2.592-5.76-4.752-2.736-2.304-5.616-4.176-2.592-2.016-5.328-4.608-2.736-2.16-3.024-2.016-2.592-2.304-6.336-4.896-3.312-3.888.144-.576 3.456 2.736 6.336 5.328 3.168 2.16 3.6 2.592 2.592 2.736 2.88 2.16 2.592 2.16 2.88 2.016 4.32 3.456 7.056 5.904 2.88 2.448 2.448 1.584 3.168 2.736 1.584.72zm-19.44-35.712l.432-.144 2.736 2.448 2.88 2.16 2.592 2.16 3.744 2.448.864.864-.864.72-4.032-2.88-3.168-2.304-4.32-3.456-1.44-1.44.576-.576zm18.144 22.896l-2.736-2.16-5.328-4.032-5.616-4.608-2.592-2.736-2.592-1.872-4.176-3.168-.432-1.296 4.896 3.024 3.888 2.736 2.16 2.16 2.304 2.16.432.432 3.168 2.16 2.736 2.448 3.456 3.456.432 1.296zm-22.176 1.008l-1.728-.144-3.168-1.44-3.168-2.736-4.608-3.456-4.32-4.032-2.736-1.728-3.312-3.168-3.888-3.024.288-1.008 2.592 1.872 2.592 1.728 2.88 2.448 2.592 2.304 2.88 2.16 3.024 3.024 3.456 2.16 4.176 3.6 2.448 1.44zm-28.08-13.68l.288-.576.576-.576 3.024 2.736 3.024 2.448 3.312 3.024 2.016 1.44 5.04 4.176-.432 1.008-2.88-1.728-2.88-2.88-2.016-1.296-2.304-1.728-6.768-6.048zm15.984 19.728l-.288.288-2.736-2.304-2.736-2.016-2.88-2.304-2.736-2.448-2.88-2.16-2.736-3.312.432-.576 2.448 1.872 5.04 4.176 2.448 2.16 4.464 3.456 2.304 2.16-.144 1.008zM286.2 60.376l.288-.576.144-.72.864.576 2.448 2.16 3.456 2.304 2.88 2.448 4.608 3.6 3.024 3.024-.432.72-3.024-2.448-3.168-2.304-3.312-2.448-2.16-2.16-3.888-2.592-1.728-1.584zm33.12 4.464l2.016.72 10.224 8.208 3.744 2.592 1.872 2.16 1.872 2.304-.144.864-2.448-1.728-2.448-2.592-3.168-2.448-3.6-3.024-2.304-1.44-2.736-2.304-2.304-1.584-.576-1.728zm-16.56 13.968v.432l-.144 1.008-3.888-2.88-2.88-2.592-4.464-3.456-3.744-2.736-2.16-2.448.144-.72 3.456 2.592 3.312 2.304 7.632 6.624 2.736 1.872zm-18.432-7.056l2.736 1.728 2.736 2.016 2.88 2.16 2.592 2.016 2.736 2.304 2.88 2.16 5.328 4.32 5.328 4.608 2.736 2.16 2.736 2.016 2.592 2.448 2.16 2.448-.864.144-3.168-2.304-3.456-2.88-2.736-2.592-2.448-2.016-2.88-2.016-4.608-3.888L297 82.84l-2.448-2.016-4.896-3.744-2.448-2.016-3.024-2.16.144-1.152zm35.712 1.728v-1.008l.432-.288 1.584 1.152 1.728 1.584 2.448 1.872 4.032 3.168 2.592 1.872 3.6 2.88 1.296 1.872-.72.288-2.448-2.16-5.328-4.032-3.6-3.024-2.736-1.584-1.872-2.016-1.008-.576zm-5.76 28.8l.432 1.008-1.44-.144-3.168-2.592-2.88-2.592-8.064-5.904-2.736-2.736-4.752-3.6-3.744-3.024-3.168-2.304-1.584-2.16.432-.72.72.432 1.872 1.728 3.024 2.304L292.968 85l2.592 1.872 2.736 2.304 2.448 2.448 5.04 3.456 4.896 4.032 3.6 3.168zm21.024-11.232l-.144.576-.576.432-3.456-2.736-3.168-2.448-6.192-5.04-3.168-3.312.288-.72 3.024 2.16 2.592 2.304 2.736 2.16 2.736 2.448 2.88 1.728 2.448 2.448zm-3.168 4.32l-.144.432-.72.576-3.6-2.592-3.312-3.312-3.456-2.016-2.592-2.16-2.736-2.88.72-.72 5.904 4.896 3.456 2.304 4.464 4.032 2.016 1.44zm-25.92 8.064l-.864-.288-7.776-5.472-2.736-2.16-2.88-2.736-3.744-2.592-4.608-4.176-1.872-1.872.432-.72 2.88 2.304 2.448 1.872 2.736 2.304 3.024 2.304 5.04 4.464 2.736 1.872 4.32 3.024 1.44 1.296-.144.432-.432.144zm2.16-18.288h2.016l4.896 3.744 3.456 3.024 3.024 2.304 3.888 3.168 2.16 1.584-1.008.72-3.456-2.88-3.024-2.16-3.312-2.592-2.736-2.448-5.904-4.464zm-10.224 17.712l-2.16.288-4.464-3.312-2.592-2.16-3.456-2.736-4.752-4.32.288-1.008 1.152.864 2.304 1.584 1.872 1.872 3.168 2.448 2.448 2.016 6.192 4.464zm-11.088-1.584l1.008 2.016-1.152-.288-1.728-1.44-2.592-2.448-2.16-1.152-1.008-1.152.576-.864 1.584.864 2.448 2.016 3.024 2.448zM401.832 5.656l-1.008.864-5.616-4.32.288-.288 1.728.288 2.448 1.584 2.16 1.872zm-14.688-3.312l.72-.144 1.44-.144 2.88 2.592 2.88 2.736 5.184 3.744 2.16 2.448v.864l-3.312-2.448-11.952-9.648zm15.84 19.008l-.288.432h-.576l-3.024-2.736-3.024-2.448-4.752-4.032-4.608-3.312-3.6-3.312-1.44-1.728.864-.576 2.016 2.016 4.032 3.312 8.352 6.336 3.888 3.6 1.728 1.728.432.72zm.144 6.192l-2.592-.432-2.736-2.016-5.76-4.752-4.032-3.024-3.168-3.024-2.592-2.16-2.88-2.592.432-.72 3.168 2.304 3.024 2.304 3.888 3.888 4.032 2.736 5.184 4.32 4.032 3.168zm.144 7.344v.864l-.576.432-1.44-1.296-3.456-3.024-3.312-2.16-1.728-1.728-2.304-1.728-8.352-6.624-2.592-2.304-2.736-2.592.72-.432 3.168 2.448 3.024 2.304 4.608 3.888 3.024 2.16 2.448 1.872 2.16 2.016 4.176 3.024 3.168 2.88zm0 7.344l.288.864-.432.288-6.624-5.616-4.608-3.456-5.616-4.32-6.048-5.184-4.176-3.456-1.44-1.008.72-.576 3.168 1.728 5.04 4.32 5.04 4.176 3.168 2.448 3.024 2.448 5.328 4.176 2.592 2.304.576.864zm.432 6.912l.288 1.296-.288.144-3.312-2.304-3.168-2.592-5.616-4.752-2.88-2.16-2.736-2.16-5.184-3.888-5.328-4.464-3.312-2.88.864-.72 2.736 2.16 2.592 2.016 2.592 2.16 5.616 4.176 6.048 4.896 2.88 2.448 4.464 3.6 2.016 1.584 1.728 1.44zm-33.408-19.296l.288-.288 1.44 1.152 2.88 2.016 3.456 2.88 4.032 3.312 1.728 2.016-.576.72-3.168-2.592-4.032-3.456-3.6-2.736-2.448-2.304v-.72zm-2.16 5.616l2.736 1.44 2.448 2.16 5.76 4.32 3.168 3.168-.576.864-1.44-1.296-1.872-1.872-7.344-5.472-3.024-2.736.144-.576zm11.664 15.12l.576 1.44-.432.432-1.872-1.44-3.744-2.736-5.184-4.32-3.312-3.168.72-.72 3.312 2.88 3.168 2.592 4.464 3.6 2.304 1.44zm24.048 5.76l.144 1.152-3.024-1.584-5.328-4.896-4.896-3.888-2.88-2.16-1.296-1.44v-1.44l3.456 2.592 6.336 5.04 2.736 2.736 3.456 2.736 1.296 1.152zm-24.912.576l-.144.288-.288 1.152-2.592-1.728-2.448-2.016-2.304-2.016-3.744-3.024-2.736-2.16-.864-.72.144-1.152 3.024 1.872 2.448 2.016 2.592 2.448 2.16 1.872 2.88 2.16 1.584.864.288.144zm25.344 6.48l-.72 1.008-5.616-4.608-5.328-3.888-2.592-2.16-3.168-2.448-.432-1.44.144-.864 3.312 2.736 5.616 4.752 2.448 1.872 2.736 2.016 3.6 3.024zm-27.36-1.152v.432l-.432.72-2.736-1.584-2.448-1.872-7.632-6.336-1.44-1.152-.576-.576.288-1.296 1.008.432 2.736 2.592 2.448 2.16 3.888 3.168 3.168 1.872 1.728 1.44zm27.936 29.376l-.288 1.872-5.04-3.888-5.76-5.184-4.464-2.88-9.504-7.92-3.024-2.592-3.6-2.448-3.024-2.736-3.744-3.168-2.304-1.872-2.592-2.016-1.728-2.016.432-.72 2.304 2.16 8.496 6.48 3.024 2.592 2.88 2.304 2.736 2.16 2.88 2.16 2.448 2.304 4.464 3.744 4.896 3.456 3.024 2.304 4.176 4.032 3.312 1.872zm-18.864-34.272v-.72l.576-.144 1.728 1.296 2.448 2.016 3.888 2.88 5.04 4.032 3.168 2.88 1.44 1.728.144.864-2.304-1.728-5.472-4.176-4.32-3.6-3.312-2.304-2.736-2.448-.288-.576zm19.152 42.192l-1.008.432-3.888-2.88-2.736-2.16-2.448-2.16-5.184-4.032-5.904-4.896-5.328-3.888-3.312-3.024-5.184-4.176-3.312-2.592-5.328-4.464-2.88-1.728-1.152-1.152.72-.864 2.016 1.152 2.592 1.728 3.024 2.736 2.448 2.16 2.592 2.16 4.464 3.024 4.32 4.032 4.896 3.744 3.888 3.168 5.04 4.464 5.76 4.464 2.448 1.872 3.456 2.88zm-.576-21.168l-.72.432-2.448-2.016-3.168-2.16-1.728-1.728-3.168-2.736-5.04-3.744-2.304-2.592.288-.72 7.92 6.048 5.328 4.608 3.744 2.592 1.296 1.008v1.008zm-23.472 8.352l-1.584.144-4.464-3.024-2.736-2.448-8.064-5.904-5.328-4.608-3.456-3.312.288-1.008 3.024 2.448 2.592 2.016 2.736 2.304 2.592 2.448 3.456 2.304 3.024 2.16 5.184 4.32 2.736 2.16zm1.728-17.424l1.296-1.008 4.608 4.176 6.336 4.896 2.16 1.728 2.736 1.584 2.16 2.16 2.592 2.88-.144 1.152-2.88-2.736-3.456-2.736-1.584-1.152-3.024-2.16-2.304-1.728-3.888-3.6-2.448-2.016-2.16-1.44zm-11.088 16.992l-1.584.288-3.6-2.592-4.896-4.032-2.88-1.872-2.592-2.592-3.024-2.16.288-.72.144-.288 3.456 2.16 2.592 2.736 3.312 2.16 5.76 4.752 3.024 2.16zm-3.888 3.888l.144.432-.288.432-.72.288-3.6-3.024-3.888-3.024-2.88-1.728-3.312-3.312-2.016-2.16.576-.576 3.024 2.448 4.608 3.888 5.328 3.744 3.024 2.592zm-2.592 5.472v.72l-.288.576-2.736-2.304-2.736-2.16-4.896-4.032-4.032-3.168-1.584-2.016.576-.72 2.448 1.872 4.896 4.32 2.88 2.304 2.592 2.304 2.88 2.304zm-2.016 5.184l-.144.864-1.872-.864-3.6-3.168-2.592-1.872-3.168-2.016-2.592-2.736-2.448-2.16.144-.576.288-.432 2.736 2.16 3.024 2.592 3.168 2.304 2.592 1.728 3.168 3.168 1.296 1.008zm22.464-8.64l.288-.864 8.64 6.336 6.48 5.04-2.16-.288-3.744-2.592-2.448-1.872-4.32-3.168-2.736-2.592zm-30.384 8.928v1.296l-4.464-2.88-3.024-2.304-3.168-3.024.288-.72 1.872 1.44L351 98.104l4.32 3.024zM348.264 103l-2.736-.72-2.304-1.872-1.008-1.872.576-.432 5.472 4.896zm43.776-.288l-1.584.576-2.88-2.448-1.872-1.44-.144-1.296 6.48 4.608zM433.08 2.344l1.152.144 2.592 2.736 2.592 1.584 3.168 3.024 3.744 2.448 1.872 1.872 1.872 2.016-.432.864-4.176-3.6-3.6-2.592-3.744-3.312-2.16-1.296-2.304-2.016-1.296-1.296v-.432l.72-.144zm9.504 1.584l-1.008-1.584 1.44.144 2.736 2.16 2.592 2.16 2.592 3.024-.288.864-3.024-2.592-5.04-4.176zm6.192 17.712v.72l-.576.576-2.16-1.728-2.016-2.016-3.168-2.016-2.736-2.448-4.752-4.176-2.448-2.592v-.864l1.44 1.008 4.032 3.312 5.616 4.896 3.6 2.448 3.168 2.88zm-1.296 5.904l-.144 1.152-3.744-2.592-3.168-2.304-2.736-2.448-5.184-4.32-3.024-2.304.432-1.008 3.168 2.16 2.88 2.16 3.888 3.744 4.32 3.024 3.312 2.736zm-.864 6.336l-.144.72-.432.576-1.008-.864-2.736-2.16-2.448-1.872-3.312-3.168-2.736-2.016-4.32-3.312-1.008-1.584.432-.864 2.88 2.592 5.904 4.32 3.888 3.6 3.168 2.16 1.872 1.872zm-19.008-8.64l3.744 3.024 5.328 4.464 2.736 2.016 2.592 2.304 2.88 3.312v.72l-.72-.432-6.336-5.184-2.88-2.592-5.04-3.888-2.16-1.728-.288-1.152.144-.864zm-1.008 7.2l2.448 1.008 2.304 2.16 2.736 2.016 2.592 2.016 2.448 2.016 3.456 3.168 1.44 1.152v.864l-.288.576-2.592-2.016-4.608-4.032-5.904-4.608-2.16-2.016-1.872-1.44v-.864zm16.992 19.728l-.432.864-.432.288-3.312-2.448L436.824 49l-3.456-2.736-2.016-2.016-3.744-2.736-2.304-2.592.432-.576 3.312 2.592 3.168 2.016 2.592 2.736 2.736 2.016 2.736 2.16 3.024 2.304h.288zm-1.44 6.336v.288l-.144.72-.432.144-2.88-2.736-2.448-2.016-2.592-2.016-5.76-4.32-3.6-3.312.288-1.008 2.88 2.16 2.736 2.304 5.616 4.176 4.464 3.888 1.872 1.728zm-1.008 5.904L441 65.56l-.432.144-3.456-2.736-3.168-2.736-2.736-1.872-2.736-2.304-3.168-2.448-2.016-2.736.288-.576 1.152 1.152 2.736 2.16 3.024 2.16 1.44 1.44 3.888 2.592 4.032 3.456 1.296 1.152zm-1.008 6.048l-.144.864-.576.288-1.584-1.44-2.592-1.728-3.168-2.592-5.328-3.888L423 58.504l-1.008-1.44.288-.72 2.16 1.44 3.312 3.168 5.328 3.744 3.456 3.456 3.6 2.304zm-1.152 6.768l.288.576-.144.576-.576.144-2.736-2.304-2.736-2.016-2.592-2.16-3.744-3.456-6.048-5.04.288-.864 3.312 2.16 2.88 2.448 8.928 7.488 2.88 2.448zm16.56 19.728l-.288.144.144.576-.864.288-3.456-2.88-3.168-2.592-9.36-7.488-4.896-3.6-3.024-2.592-2.304-1.872-3.456-2.736-3.744-2.736-1.296-1.728.576-.72 3.456 2.448 13.104 10.656 6.048 4.752 6.192 5.04 2.736 2.16 3.312 2.448.288.432zm-3.312 5.184l-.576-.288-3.312-1.584-3.6-3.456-4.752-3.456-4.608-3.744-2.88-2.592-3.744-2.592-4.896-4.32-3.888-2.88-1.296-1.44.432-.72 3.456 2.016 2.88 2.592 5.04 4.464 4.896 3.312 3.024 2.88 3.6 2.736 2.448 2.016 3.024 2.16 1.728 1.872 2.736 1.872 1.152.864-.144.144h-.432l-.288.144zm-8.496-.864v1.296l-3.744-2.304-2.736-1.728-2.016-2.16-4.32-3.024-5.472-4.896-5.616-4.608-2.592-2.304.144-.864 2.016 1.296L423.432 85l3.6 2.88 3.456 3.312 2.448 2.016 3.312 2.16 2.736 2.88 4.752 3.024zm2.016-17.568l.288-.576 1.296.144 3.024 2.592 3.024 2.304 3.024 3.168-.432.864-3.168-2.736-2.88-2.592-4.176-3.168zm7.776-.576h1.728l2.016 1.728-.144.864-1.872-1.296-1.728-1.296zm-17.568 18.864l-.864.576-4.464-2.448-5.472-4.896-2.88-2.16-2.736-2.16-2.88-3.024v-1.008l3.168 2.592 3.024 2.304 5.904 4.896 3.024 2.736 4.176 2.592zm-10.656-1.152v1.584l-4.608-3.6-4.176-3.024-1.152-1.728.432-.864 3.168 2.304 3.744 3.024 2.592 2.304zm-11.376-1.296l.144-.288 2.448 1.44.576 1.872-2.592-1.728-.576-1.296zm69.84-97.2l1.152.144 2.592 2.736 2.592 1.584 3.168 3.024 3.744 2.448 1.872 1.872 1.872 2.016-.432.864-4.176-3.6-3.6-2.592-3.744-3.312-2.16-1.296-2.304-2.016-1.296-1.296v-.432l.72-.144zm9.504 1.584l-1.008-1.584 1.44.144 2.736 2.16 2.592 2.16 2.592 3.024-.288.864-3.024-2.592-5.04-4.176zm6.192 17.712v.72l-.576.576-2.16-1.728-2.016-2.016-3.168-2.016-2.736-2.448-4.752-4.176-2.448-2.592v-.864l1.44 1.008 4.032 3.312 5.616 4.896 3.6 2.448 3.168 2.88zm-1.296 5.904l-.144 1.152-3.744-2.592-3.168-2.304-2.736-2.448-5.184-4.32-3.024-2.304.432-1.008 3.168 2.16 2.88 2.16 3.888 3.744 4.32 3.024 3.312 2.736zm-.864 6.336l-.144.72-.432.576-1.008-.864-2.736-2.16-2.448-1.872-3.312-3.168-2.736-2.016-4.32-3.312-1.008-1.584.432-.864 2.88 2.592 5.904 4.32 3.888 3.6 3.168 2.16 1.872 1.872zm-19.008-8.64l3.744 3.024 5.328 4.464 2.736 2.016 2.592 2.304 2.88 3.312v.72l-.72-.432-6.336-5.184-2.88-2.592-5.04-3.888-2.16-1.728-.288-1.152.144-.864zm-1.008 7.2l2.448 1.008 2.304 2.16 2.736 2.016 2.592 2.016 2.448 2.016 3.456 3.168 1.44 1.152v.864l-.288.576-2.592-2.016-4.608-4.032-5.904-4.608-2.16-2.016-1.872-1.44v-.864zm16.992 19.728l-.432.864-.432.288-3.312-2.448L487.512 49l-3.456-2.736-2.016-2.016-3.744-2.736-2.304-2.592.432-.576 3.312 2.592 3.168 2.016 2.592 2.736 2.736 2.016 2.736 2.16 3.024 2.304h.288zm-1.44 6.336v.288l-.144.72-.432.144-2.88-2.736-2.448-2.016-2.592-2.016-5.76-4.32-3.6-3.312.288-1.008 2.88 2.16 2.736 2.304 5.616 4.176 4.464 3.888 1.872 1.728zm-1.008 5.904l-.144 1.152-.432.144-3.456-2.736-3.168-2.736-2.736-1.872-2.736-2.304-3.168-2.448-2.016-2.736.288-.576 1.152 1.152 2.736 2.16 3.024 2.16 1.44 1.44 3.888 2.592 4.032 3.456 1.296 1.152zm-1.008 6.048l-.144.864-.576.288-1.584-1.44-2.592-1.728-3.168-2.592-5.328-3.888-3.744-3.456-1.008-1.44.288-.72 2.16 1.44 3.312 3.168 5.328 3.744 3.456 3.456 3.6 2.304zm-1.152 6.768l.288.576-.144.576-.576.144-2.736-2.304-2.736-2.016-2.592-2.16-3.744-3.456-6.048-5.04.288-.864 3.312 2.16 2.88 2.448 8.928 7.488 2.88 2.448zm16.56 19.728l-.288.144.144.576-.864.288-3.456-2.88-3.168-2.592L489.24 85l-4.896-3.6-3.024-2.592-2.304-1.872-3.456-2.736-3.744-2.736-1.296-1.728.576-.72 3.456 2.448 13.104 10.656 6.048 4.752 6.192 5.04 2.736 2.16 3.312 2.448.288.432zm-3.312 5.184l-.576-.288-3.312-1.584-3.6-3.456-4.752-3.456-4.608-3.744-2.88-2.592-3.744-2.592-4.896-4.32-3.888-2.88-1.296-1.44.432-.72 3.456 2.016 2.88 2.592 5.04 4.464 4.896 3.312 3.024 2.88 3.6 2.736 2.448 2.016 3.024 2.16 1.728 1.872 2.736 1.872 1.152.864-.144.144h-.432l-.288.144zm-8.496-.864v1.296l-3.744-2.304-2.736-1.728-2.016-2.16-4.32-3.024-5.472-4.896-5.616-4.608-2.592-2.304.144-.864 2.016 1.296L474.12 85l3.6 2.88 3.456 3.312 2.448 2.016 3.312 2.16 2.736 2.88 4.752 3.024zm2.016-17.568l.288-.576 1.296.144 3.024 2.592 3.024 2.304 3.024 3.168-.432.864-3.168-2.736-2.88-2.592-4.176-3.168zm7.776-.576h1.728l2.016 1.728-.144.864-1.872-1.296-1.728-1.296zm-17.568 18.864l-.864.576-4.464-2.448-5.472-4.896-2.88-2.16-2.736-2.16-2.88-3.024v-1.008l3.168 2.592 3.024 2.304 5.904 4.896 3.024 2.736 4.176 2.592zm-10.656-1.152v1.584l-4.608-3.6-4.176-3.024-1.152-1.728.432-.864 3.168 2.304 3.744 3.024 2.592 2.304zm-11.376-1.296l.144-.288 2.448 1.44.576 1.872-2.592-1.728-.576-1.296zm108.72-93.888l-1.008.864-5.616-4.32.288-.288 1.728.288 2.448 1.584 2.16 1.872zm-14.688-3.312l.72-.144 1.44-.144 2.88 2.592 2.88 2.736 5.184 3.744 2.16 2.448v.864l-3.312-2.448-11.952-9.648zm15.84 19.008l-.288.432h-.576l-3.024-2.736-3.024-2.448-4.752-4.032-4.608-3.312-3.6-3.312-1.44-1.728.864-.576 2.016 2.016 4.032 3.312 8.352 6.336 3.888 3.6 1.728 1.728.432.72zm.144 6.192l-2.592-.432-2.736-2.016-5.76-4.752-4.032-3.024-3.168-3.024-2.592-2.16-2.88-2.592.432-.72 3.168 2.304 3.024 2.304 3.888 3.888 4.032 2.736 5.184 4.32 4.032 3.168zm.144 7.344v.864l-.576.432-1.44-1.296-3.456-3.024-3.312-2.16-1.728-1.728-2.304-1.728-8.352-6.624-2.592-2.304-2.736-2.592.72-.432 3.168 2.448 3.024 2.304 4.608 3.888 3.024 2.16 2.448 1.872 2.16 2.016 4.176 3.024 3.168 2.88zm0 7.344l.288.864-.432.288-6.624-5.616-4.608-3.456-5.616-4.32-6.048-5.184-4.176-3.456-1.44-1.008.72-.576 3.168 1.728 5.04 4.32 5.04 4.176 3.168 2.448 3.024 2.448 5.328 4.176 2.592 2.304.576.864zm.432 6.912l.288 1.296-.288.144-3.312-2.304-3.168-2.592-5.616-4.752-2.88-2.16-2.736-2.16-5.184-3.888-5.328-4.464-3.312-2.88.864-.72 2.736 2.16 2.592 2.016 2.592 2.16 5.616 4.176 6.048 4.896L567 42.52l4.464 3.6 2.016 1.584 1.728 1.44zM541.8 29.848l.288-.288 1.44 1.152 2.88 2.016 3.456 2.88 4.032 3.312 1.728 2.016-.576.72-3.168-2.592-4.032-3.456-3.6-2.736-2.448-2.304v-.72zm-2.16 5.616l2.736 1.44 2.448 2.16 5.76 4.32 3.168 3.168-.576.864-1.44-1.296-1.872-1.872-7.344-5.472-3.024-2.736.144-.576zm11.664 15.12l.576 1.44-.432.432-1.872-1.44-3.744-2.736-5.184-4.32-3.312-3.168.72-.72 3.312 2.88 3.168 2.592 4.464 3.6 2.304 1.44zm24.048 5.76l.144 1.152-3.024-1.584-5.328-4.896-4.896-3.888-2.88-2.16-1.296-1.44v-1.44l3.456 2.592 6.336 5.04 2.736 2.736 3.456 2.736 1.296 1.152zm-24.912.576l-.144.288-.288 1.152-2.592-1.728-2.448-2.016-2.304-2.016-3.744-3.024-2.736-2.16-.864-.72.144-1.152 3.024 1.872 2.448 2.016 2.592 2.448 2.16 1.872 2.88 2.16 1.584.864.288.144zm25.344 6.48l-.72 1.008-5.616-4.608-5.328-3.888-2.592-2.16-3.168-2.448-.432-1.44.144-.864 3.312 2.736L567 56.488l2.448 1.872 2.736 2.016 3.6 3.024zm-27.36-1.152v.432l-.432.72-2.736-1.584-2.448-1.872-7.632-6.336-1.44-1.152-.576-.576.288-1.296 1.008.432 2.736 2.592 2.448 2.16 3.888 3.168 3.168 1.872 1.728 1.44zm27.936 29.376l-.288 1.872-5.04-3.888-5.76-5.184-4.464-2.88-9.504-7.92-3.024-2.592-3.6-2.448-3.024-2.736-3.744-3.168-2.304-1.872-2.592-2.016-1.728-2.016.432-.72 2.304 2.16 8.496 6.48 3.024 2.592 2.88 2.304 2.736 2.16 2.88 2.16 2.448 2.304 4.464 3.744 4.896 3.456 3.024 2.304 4.176 4.032 3.312 1.872zm-18.864-34.272v-.72l.576-.144 1.728 1.296 2.448 2.016 3.888 2.88 5.04 4.032 3.168 2.88 1.44 1.728.144.864-2.304-1.728-5.472-4.176-4.32-3.6-3.312-2.304-2.736-2.448-.288-.576zm19.152 42.192l-1.008.432-3.888-2.88-2.736-2.16-2.448-2.16-5.184-4.032-5.904-4.896-5.328-3.888-3.312-3.024-5.184-4.176-3.312-2.592-5.328-4.464-2.88-1.728-1.152-1.152.72-.864 2.016 1.152 2.592 1.728 3.024 2.736 2.448 2.16 2.592 2.16 4.464 3.024 4.32 4.032 4.896 3.744 3.888 3.168 5.04 4.464 5.76 4.464 2.448 1.872 3.456 2.88zm-.576-21.168l-.72.432-2.448-2.016-3.168-2.16-1.728-1.728-3.168-2.736-5.04-3.744-2.304-2.592.288-.72 7.92 6.048 5.328 4.608 3.744 2.592 1.296 1.008v1.008zM552.6 86.728l-1.584.144-4.464-3.024-2.736-2.448-8.064-5.904-5.328-4.608-3.456-3.312.288-1.008 3.024 2.448 2.592 2.016 2.736 2.304 2.592 2.448 3.456 2.304 3.024 2.16 5.184 4.32 2.736 2.16zm1.728-17.424l1.296-1.008 4.608 4.176 6.336 4.896 2.16 1.728 2.736 1.584 2.16 2.16 2.592 2.88-.144 1.152-2.88-2.736-3.456-2.736-1.584-1.152-3.024-2.16-2.304-1.728-3.888-3.6-2.448-2.016-2.16-1.44zM543.24 86.296l-1.584.288-3.6-2.592-4.896-4.032-2.88-1.872-2.592-2.592-3.024-2.16.288-.72.144-.288 3.456 2.16 2.592 2.736 3.312 2.16 5.76 4.752 3.024 2.16zm-3.888 3.888l.144.432-.288.432-.72.288-3.6-3.024L531 85.288l-2.88-1.728-3.312-3.312-2.016-2.16.576-.576 3.024 2.448L531 83.848l5.328 3.744 3.024 2.592zm-2.592 5.472v.72l-.288.576-2.736-2.304-2.736-2.16-4.896-4.032-4.032-3.168-1.584-2.016.576-.72 2.448 1.872 4.896 4.32 2.88 2.304 2.592 2.304 2.88 2.304zm-2.016 5.184l-.144.864-1.872-.864-3.6-3.168-2.592-1.872-3.168-2.016-2.592-2.736-2.448-2.16.144-.576.288-.432 2.736 2.16 3.024 2.592 3.168 2.304 2.592 1.728 3.168 3.168 1.296 1.008zm22.464-8.64l.288-.864 8.64 6.336 6.48 5.04-2.16-.288-3.744-2.592-2.448-1.872-4.32-3.168-2.736-2.592zm-30.384 8.928v1.296l-4.464-2.88-3.024-2.304-3.168-3.024.288-.72 1.872 1.44 4.176 3.168 4.32 3.024zM519.768 103l-2.736-.72-2.304-1.872-1.008-1.872.576-.432 5.472 4.896zm43.776-.288l-1.584.576-2.88-2.448-1.872-1.44-.144-1.296 6.48 4.608zM616.68 1.192l1.296-.288 4.464 2.88 5.616 4.752 3.456 2.592 3.456 2.304 2.88 2.304 3.168 2.88 1.296 1.152.144 1.296-.144.288-2.16-2.016-5.328-3.744-5.328-4.608-5.904-4.464-3.312-2.304-3.6-3.024zm24.192 10.512l.864 2.448-7.92-6.48-2.304-1.728-2.16-2.16-2.736-2.16h1.872l3.744 3.168 3.024 2.016 2.304 2.304 3.312 2.592zm1.296 15.12l.144.864-.432.288-3.024-2.016-2.88-2.16-3.024-2.88-2.88-2.16-3.168-2.304-11.088-9.36-2.88-2.304-2.592-2.448.144-.144h1.008l3.744 2.448 2.592 2.16 2.448 2.304 2.592 2.016 5.184 4.32 2.736 1.872 3.888 3.456 2.88 2.448 3.024 2.16 1.584 1.44zm-.72 6.192l-.288.432-1.008.432-3.024-2.592-5.76-4.32-2.448-2.16-3.744-3.024-2.448-2.88-2.448-1.584-1.44-.432-2.736-2.592-5.472-4.032-4.464-3.456-1.584-1.728 1.008-.432 2.448 2.16 5.472 3.744L616.68 13l3.168 3.024 3.888 2.448 2.88 3.168 3.168 2.16 5.616 4.176 2.304 2.016 3.024 2.592.72.432zM615.24 18.904l-.144.72-.576.72-2.592-2.304-6.048-4.464-4.32-3.6-.72-1.584.432-.432 2.592 2.16 8.064 6.192 3.312 2.592zm-1.728 6.624l-3.168-1.728-3.312-2.592-2.88-2.304-4.752-3.744-1.872-1.728.576-.72 2.736 1.728 2.592 2.16 2.448 2.16 3.168 2.16 2.16 1.872 2.16 1.584.144 1.152zm3.024 10.368l-2.304-1.584-4.896-4.464-3.6-2.16-6.912-6.048-3.024-3.024.576-.864 2.88 2.736 3.168 2.304 4.896 4.032 3.024 2.016 2.88 2.448 2.88 3.168.432 1.44zm14.688 18.288l-2.16-1.728-2.592-1.872-3.456-2.304-2.736-2.448-4.608-3.888-4.608-3.456-3.168-2.448-4.752-4.032-4.752-3.6-3.024-2.448-1.008-1.008v-1.44h.288l2.16 2.016 4.176 3.168 5.76 4.464 6.624 5.472 6.048 4.752 2.016 1.872 3.312 2.736 3.744 2.592 2.448 3.024.288.576zm3.312-20.016l-1.584.288-7.632-5.76-.864-1.152.144-.72 2.16 1.152 4.896 3.744 2.88 2.448zm1.152 30.672l-7.776-5.616-8.064-6.624-3.744-3.168-2.304-1.584-2.16-1.872-3.6-2.736-4.896-4.32-7.776-6.192-1.152-.72.144-1.44 1.584 1.152 5.04 3.6 5.616 5.04 3.312 2.592 2.448 2.016 2.16 1.872 2.592 1.44L621 51.592l7.056 5.904 3.168 2.448 4.032 3.312.432 1.584zm-39.312-25.2l.864-.288 1.584 1.584 3.312 2.88 2.88 2.016 4.608 3.744 3.888 3.312 5.616 4.32 6.048 5.04 3.168 2.304 5.04 3.888 2.736 2.448 1.44 1.584-.432 1.008-1.44-1.008-7.92-6.624-2.592-1.872-11.232-8.928-5.184-4.032-2.448-2.304-3.024-2.016-2.88-3.024-3.024-2.448-1.008-1.584zm13.536 17.424l1.728 1.152 3.744 3.168 2.448 1.728 5.04 4.032 2.448 2.16 2.448 1.872 3.168 2.736 2.304 1.728 2.304 2.016 1.584 1.872-.288 1.008-2.016-1.728-2.304-2.304-3.456-2.304-7.488-6.336-2.736-2.016-4.896-3.744-2.88-3.312-1.152-1.728zm-8.496 9.36h2.016l1.584 1.152.144 1.584-.864-.576-2.88-2.16zm-8.208.144h1.872l6.912 5.184 3.024 3.168v.432l-5.76-4.176-6.048-4.608zm12.672 15.84l-1.152-.144-2.16-1.584-2.448-2.016-3.744-3.168-8.208-6.48-1.296-1.008.864-.72 1.872 1.296 3.888 2.88 2.304 1.872 3.024 2.16 2.88 2.88 3.312 2.448.864 1.584zm10.656-11.664l-.144-1.296h.288l3.024 2.304 2.88 2.16 4.752 3.744 2.736 2.448 3.888 2.736 2.736 3.168-.432.576-2.304-1.728-2.16-2.016-3.6-2.16-6.048-5.472-3.888-3.024-1.728-1.44zm-30.672 3.6v-.72l.576-.288 3.168 2.304 2.736 2.16 2.592 1.872 7.632 6.336 6.48 5.04 5.616 4.752 3.024 2.16 5.616 4.464-1.008.576-3.456-2.16-7.2-5.616-4.176-3.744-5.472-4.032-5.616-4.896-3.024-2.16-4.896-3.888-2.592-2.16zm31.392 2.88l2.448 1.44 2.592 2.016 2.736 2.16 2.448 2.016 2.736 2.016 3.6 3.168 1.008 1.872-.288.72-3.168-3.024-9.216-7.2-4.032-3.024-.864-1.008v-1.152zm-.288 27.216h-1.44l-1.44-.864-2.448-1.44-3.024-2.736-3.168-2.304-3.312-2.304-2.16-2.016-3.168-2.88-2.448-1.872-3.6-2.592-2.448-2.304-2.304-2.448.144-1.008 2.592 2.304 4.464 3.6 7.92 6.48L603 93.352l3.168 2.736 4.32 3.168 1.872 1.584 4.608 3.6zm-.864-21.456l.432-.144 2.88 2.448 3.168 2.304 6.192 5.04 3.456 3.6-.576.432-3.024-2.16-2.304-1.872-5.184-4.32-2.448-2.16-2.88-2.16.288-1.008zm-5.04 4.464l.144-.864 1.296.144 3.024 2.592 5.616 4.752 3.6 2.736 3.6 3.024-.864.576-3.744-2.592-3.024-2.592-2.736-2.16-6.912-5.616zm-5.76 14.688l.432 2.16-3.888-3.6-7.2-5.184-3.744-3.024-1.872-1.872-1.728-1.44 2.304.432 2.448 2.016 2.88 2.16 2.592 2.016 2.592 2.16 2.736 2.16 2.448 2.016zm-10.512-1.008l-1.296-1.008-2.88-3.744 7.344 6.192-3.168-1.44z"/></g></svg>
