<svg width="78" height="90" xmlns="http://www.w3.org/2000/svg"><path d="M19.122 90c-3.021-.524-6.576-1.014-10.08-1.78-4.651-1.018-7.131-4.345-7.931-9.457C.048 71.973.222 65.148.26 58.306.309 49.658.117 41.009.053 32.36.013 26.945-.024 21.53.02 16.115c.019-2.338 1.202-4.09 3.217-4.633a60.164 60.164 0 0 1 6.682-1.314c2.515-.38 5.047-.655 7.579-.877.949-.025 1.899.038 2.836.19 4.466.454 8.933.892 13.394 1.394 3.602.405 5.294 2.4 5.727 6.384.458 4.219 1.218 8.41 1.48 12.64.281 4.534.168 9.1.164 13.65-.002 2.21-.105 4.423-.236 6.629-.217 3.66-.56 7.312-.727 10.975-.186 4.054-.326 8.116-.318 12.174.01 4.01-.707 7.989-2.118 11.743a5.648 5.648 0 0 1-4.853 3.758c-4.375.457-8.763.758-13.724 1.172zm8.086-11.924c3.628-.534 6.866.38 9.743-1.47a2.436 2.436 0 0 0 1.102-1.498c.222-3.053.285-6.12.417-9.18.282-6.514.46-13.037.892-19.54.549-7.09.27-14.22-.828-21.245-.179-1.078.215-2.353-1.218-2.889-1.03-.385-1.915-1.47-2.937-1.612a60.324 60.324 0 0 0-9.945-.835c-5.876.168-11.75.636-17.61 1.193-3.975.379-5.508 2.532-5.413 6.95.1 4.628.225 9.257.318 13.886.088 4.429.161 8.858.218 13.287.068 5.86-.044 11.73.211 17.58.17 3.89.396 3.883 3.784 4.653.365.062.735.09 1.105.082 2.677.092 5.353.18 8.03.267 4.229.132 8.458.259 12.131.371zm10.748-58.449c-.136-1.013-.24-1.691-.315-2.373-.242-2.192-1.132-3.8-3.266-4.093-4.503-.619-9.014-1.632-13.521-1.63-5.357 0-10.719.848-16.066 1.463a3.49 3.49 0 0 0-2.02 1.476 8.092 8.092 0 0 0-1.098 6.433c.412-.12.814-.273 1.201-.457a12.479 12.479 0 0 1 8.103-1.72c.78.074 1.568.05 2.343-.07 4.637-.557 9.229-1.505 13.956-.618 3.478.652 7.144-.26 10.683 1.59zM19.888 80.004l-16.86-.677a7.9 7.9 0 0 0 4.133 5.938C9.44 86.57 11.9 86.892 14.46 87.23c5.964.785 11.853.247 17.757-.352a5.045 5.045 0 0 0 3.124-1.422c1.527-1.738 2.02-4.094 2.3-6.802-4.945 2.258-10.04.58-15.051 1.625 2.147 2.727 1.845 2.714.74 5.45a2.475 2.475 0 0 1-2.934 1.529c-1.77-.368-3.588-2.533-3.509-4.051.1-1.888 1.38-2.65 3.002-3.202zm3 3.373a7.691 7.691 0 0 0-2.202-1.123c-.47.19-.834.573-1 1.052.358.665.788 1.29 1.283 1.861l1.919-1.79zM78 12.862c-.01.604-.018 1.209-.04 1.813a34.855 34.855 0 0 1-1.026 5.216c-.965 3.103-3.47 4.365-6.592 4.886a25.199 25.199 0 0 1-7.45-.138c-2.068-.264-4.159-.451-6.185-.912a4.398 4.398 0 0 0-3.199.139 223.366 223.366 0 0 0-5.333 2.906c-.799.448-1.542.993-2.34 1.442-.343.194-.725.31-1.119.343-.808.055-1.018-.305-.586-1.02 1.194-1.973 2.344-3.973 3.578-5.92.773-.948.946-2.25.446-3.367a16.523 16.523 0 0 1-.7-4.19c-.499-3.736.6-7.27 1.602-10.77.218-.763 1.462-1.395 2.365-1.772A23.1 23.1 0 0 1 59.746.053C63.694-.062 67.65.038 71.6.09c.92-.044 1.84.084 2.712.378a3.188 3.188 0 0 1 1.735 1.629 72.413 72.413 0 0 1 1.789 7.401c.115 1.112.127 2.232.034 3.346l.13.017zM71.953 22.98a5.654 5.654 0 0 0 3.638-3.736 22.447 22.447 0 0 0 .937-8.979 18.453 18.453 0 0 0-1.693-7.392 1.804 1.804 0 0 0-1.077-.944c-3.083-.311-6.173-.62-9.268-.729a41.292 41.292 0 0 0-6.822.278 43.731 43.731 0 0 0-6.49 1.51 2.306 2.306 0 0 0-1.2 1.437c-.436 1.477-.611 3.03-1.011 4.52-.792 2.956-.297 5.848.287 8.746.017.24.107.47.259.658 1.027.813.563 1.653.092 2.5-.31.556-.625 1.108-.946 1.656-.616 1.052-1.238 2.1-1.857 3.15l.274.21c2.207-1.26 4.409-2.53 6.627-3.77.31-.216.686-.317 1.064-.287a34.598 34.598 0 0 0 8.848 1.584c2.8.093 5.53.628 8.338-.412zm-9.18-15.988c2.66-3.664 7.439-3.36 9.513.615.402.958.382 2.041-.056 2.983a27.253 27.253 0 0 1-3.193 4.373c-1.3 1.574-2.701 3.064-4.07 4.58-.29.3-.596.584-.916.851-.489.438-.831.368-1.325-.132a24.72 24.72 0 0 0-2.992-2.585c-1.65-1.208-3.465-2.205-5.029-3.509a7.977 7.977 0 0 1-2.176-2.97c-1.282-3.096.533-5.853 3.957-6.42 2.242-.371 3.9.835 5.66 1.832.192.108.376.229.627.382zm1.02 12.109c2.482-2.98 4.96-5.845 7.27-8.837a2.59 2.59 0 0 0 .026-2.345 4.603 4.603 0 0 0-4.207-2.246 2.78 2.78 0 0 0-2.57 3.392c-.03.346-.136.682-.313.98a1.364 1.364 0 0 1-.624-.308 6.937 6.937 0 0 0-4.248-3.54c-2.106-.79-4.028-.337-5.104 1.24a3.423 3.423 0 0 0 .754 4.883c2.843 2.307 5.846 4.415 9.016 6.78z" fill="#E72192" fill-rule="nonzero"/></svg>
