<svg width="94" height="92" xmlns="http://www.w3.org/2000/svg"><path d="M27.764 47.022c.459-5.085 1.611-10.155 4.746-14.057 4.174-5.196 9.78-8.021 16.923-7.365a28.239 28.239 0 0 1 12.078 4.136c3.05 1.819 5.086 4.604 6.859 7.695 1.67 2.914 2.856 5.83 2.362 9.206a25.138 25.138 0 0 1-1.068 4.435c-1.862 5.473-4.038 10.897-9.302 13.945a26.485 26.485 0 0 1-8.203 2.552c-6.383 1.235-11.59-1.743-16.528-5.215-4.268-3-6.479-7.39-7.684-12.331a16.431 16.431 0 0 1-.183-3.001zm41.192-2.503c-.223-1.064-.17-2.333-.73-3.214-1.888-2.972-3.596-6.229-6.112-8.589a19.73 19.73 0 0 0-12.198-5.057c-7.06-.579-14.39 3.067-17.671 9.33a34.63 34.63 0 0 0-1.861 4.788 15.288 15.288 0 0 0 .554 11.558c3.02 6.84 8.781 10.187 15.606 11.956a15.162 15.162 0 0 0 12.43-2.044C65.514 58.87 67.777 52 68.955 44.52zM20.14 81.347c.392-3.241 8.407-12.89 11.926-14.689 1.163 1.006.26 1.771-.368 2.467-2.61 2.892-5.27 5.74-7.887 8.625-.673.742-1.215 1.605-1.904 2.33-.55.473-1.142.897-1.767 1.267zm31.06 2.207c0 1.95.082 3.906-.044 5.848a5.889 5.889 0 0 1-.934 1.935 5.397 5.397 0 0 1-1-1.948c-.102-3.769-.052-7.541-.07-11.312-.004-.764-.161-1.535-.095-2.289.125-.438.328-.85.599-1.218.43.191.8.493 1.074.875.227 1.865.321 3.748.425 5.626.046.826.008 1.655.008 2.483h.038zM0 51.628c2.516-.528 4.898-1.17 7.322-1.498 2.621-.354 5.28-.466 7.926-.558a4.76 4.76 0 0 1 1.761.758 5.566 5.566 0 0 1-1.657.927c-4.433.681-8.882 1.259-13.318 1.92-1.007.15-1.772.121-2.034-1.549zm49.136-34.906a4.59 4.59 0 0 1-.64-1.585c.073-4.654.2-9.308.384-13.96A3.05 3.05 0 0 1 49.687 0a3.39 3.39 0 0 1 1.095 1.193c.108.94.109 1.89.002 2.83-.222 3.808-.455 7.616-.72 11.422-.09.426-.24.838-.443 1.223l-.485.054zM88.5 42.8c1.182.229 2.633.462 4.052.82.356.23.651.541.863.908-.293.249-.633.438-1 .555-3.916.31-7.833.608-11.756.804a4.383 4.383 0 0 1-1.698-.782c.44-.47.97-.847 1.558-1.107 2.55-.466 5.127-.785 7.981-1.198zM71.11 24.905c.35-1.048.8-2.06 1.343-3.023 1.934-2.797 3.975-5.522 6.03-8.232.364-.18.767-.26 1.17-.235.125.354.154.734.087 1.104-2.547 3.633-5.143 7.232-7.728 10.838l-.902-.452zm2.518 39.65c.889.985 1.765 1.983 2.67 2.955 2.169 2.332 4.368 4.636 6.511 6.991.294.443.52.928.67 1.437a3.462 3.462 0 0 1-1.708-.274c-2.892-3-5.725-6.057-8.499-9.17a3.652 3.652 0 0 1-.282-1.69l.638-.25zM25.63 24.705c-.934-.73-1.86-1.47-2.803-2.189-2.248-1.715-4.507-3.417-6.754-5.133a4.219 4.219 0 0 1-1.167-1.043 1.465 1.465 0 0 1 .031-1.242 1.1 1.1 0 0 1 1.058-.151c3.576 2.301 7.028 4.763 9.638 8.197.19.356.323.738.397 1.134l-.4.427zm40.542 56.4c-.548-1.627-1.103-3.253-1.642-4.883-.516-1.56-1.066-3.113-1.493-4.698a5.333 5.333 0 0 1 .106-1.693c.519.304 1.362.5 1.503.929.812 2.454 1.5 4.953 2.133 7.46.147.883.216 1.777.207 2.672l-.814.214zM22.326 39.515a17.753 17.753 0 0 0-8.653-2.588c-.51-.04-.964-.786-1.444-1.206a5.415 5.415 0 0 1 1.607-.658c2.428-.2 4.85.45 6.853 1.837a16.349 16.349 0 0 1 2.08 2.097l-.443.518zm54.652 15.478c2.603.28 4.83.454 7.03.799.6.25 1.14.622 1.59 1.09a7.213 7.213 0 0 1-1.763.494 53.28 53.28 0 0 1-4.597-.122 7.789 7.789 0 0 1-2.399-.455 1.503 1.503 0 0 1-.684-1.22 1.61 1.61 0 0 1 .823-.586zM38.392 81.478c-.023-.967.044-1.934.2-2.889.414-1.533.919-3.04 1.512-4.513a3.773 3.773 0 0 1 1.041-1.39 1.289 1.289 0 0 1 1.078-.198.976.976 0 0 1 .32.899c-1.099 2.657-2.254 5.29-3.408 7.923-.238.094-.489.15-.743.168zM24.548 59.621c.217.088.408.231.555.414.006.5-.14.991-.42 1.407-1.05 1.032-2.226 1.935-3.326 2.92-.79.707-1.494 1.515-2.317 2.176a3 3 0 0 1-1.256.254 1.8 1.8 0 0 1-.04-.938c2.09-2.06 4.22-4.076 6.347-6.096.144-.07.298-.117.457-.137zm16.51-38.089a9.957 9.957 0 0 1-.838-1.432c-.885-2.301-1.764-4.607-2.547-6.943a3.598 3.598 0 0 1 .252-1.53c.447.178.851.448 1.188.792 1.588 2.762 1.913 5.863 2.48 8.896l-.535.217zm33.908 11.09c.432-.443.917-.83 1.443-1.155a98.705 98.705 0 0 1 5.698-2.422c.463-.049.931.002 1.373.15a2.936 2.936 0 0 1-.678 1.22 97.544 97.544 0 0 1-6.205 3.038 3.472 3.472 0 0 1-1.566-.176l-.065-.655zm-15.832-13.54a7.615 7.615 0 0 1-.13-2.12c.46-1.872 1.035-3.72 1.629-5.556.205-.316.475-.584.792-.787.293.234.537.524.718.852.442 1.542-1.4 6.396-3.009 7.611zm-2.498 35.105c-5.623 4.82-11.25 3.449-16.9.1a17.161 17.161 0 0 1-1.468 1.82 3.511 3.511 0 0 1-1.202.476 3.056 3.056 0 0 1-.326-1.266 6.59 6.59 0 0 1 .827-1.931 43.914 43.914 0 0 1 2.351-3.524 1.342 1.342 0 0 1 1.152-.447c.4.194.685.567.766 1.004.288 2.847.33 3.24 3.109 3.653 2.542.325 5.116.322 7.657-.01 1-.112 2.739-.854 1.327-2.714a1.5 1.5 0 0 1 .517-1.297 1.667 1.667 0 0 1 1.526-.094 30.931 30.931 0 0 1 3.228 3.498c.181.448.112.959-.182 1.343a2.395 2.395 0 0 1-1.511.057 2.916 2.916 0 0 1-.87-.668zM43.948 40.885c-1.953 1.21-4.151 1.213-6.498.822a24.367 24.367 0 0 1-2.499-1.197c-.426-.24-.343-1.383-.494-2.111.64.052 1.261.234 1.828.535 1.909 1.695 4.083 1.128 6.247.978.606.05 1.202.189 1.768.413-.124.172-.238.366-.352.56zm17.954-2.036c.344.278.551.69.57 1.13-.028.059-.063.117-.095.176-.41.399-.86.755-1.342 1.062-1.572.47-3.19.77-4.826.894a4.507 4.507 0 0 1-3.133-1.626.586.586 0 0 0-.086-.105 5.936 5.936 0 0 0-.008-.626c.468-.015.936.059 1.377.217a5.808 5.808 0 0 0 5.734-.439 3.924 3.924 0 0 1 1.81-.683z" fill="#E72192" fill-rule="nonzero"/></svg>
