<svg width="104" height="72" xmlns="http://www.w3.org/2000/svg"><path d="M44.827 62.26c-5.605 2.59-11.53 3.345-17.013-1.66-5.214 2.962-10.876 3.044-16.261 1.565C3.944 60.076-2.32 50.873.835 42.785a10.939 10.939 0 0 1 7.06-6.709c-3.465-5.483-4.782-11.177.99-19.02 3.566-4.846 5.496-6.933 16.579-3.024a48.012 48.012 0 0 1 3.444-6.725C32.201 2.745 37.113.777 42.456.161c5.766-.665 11.204.68 15.331 4.987 1.787 1.864 2.829 4.495 4.02 6.874.532 1.065.498 2.601 2.253 2.078 3.755-1.12 6.319.88 8.893 3.128.667.63 1.554.971 2.468.949 8.318-1.683 14.539 1.709 19.423 8.114a16.918 16.918 0 0 1 2.355 5.29 7.725 7.725 0 0 0 2.713 4.203c4.105 3.165 5.28 11.278 2.785 15.89-3.734 6.9-9.632 10.053-17.134 10.7-1.762.152-3.535.173-5.61.268-.792 4.656-4.502 6.482-8.63 7.945a20.534 20.534 0 0 1-18.237-1.628c-2.945-1.782-5.417-4.355-8.26-6.7zm31.855-4.405c1.157.257 2.068.461 2.979.661 1.268.418 2.58.688 3.91.805 3.693.006 7.32-.993 10.496-2.892 4.255-2.63 6.833-6.35 6.909-11.439.109-4.196-2.869-7.832-6.983-8.528-1.596-.313-1.168-1.382-1-2.448.184-1.175.665-2.585.226-3.514a17.28 17.28 0 0 0-3.383-4.68c-4.445-4.457-9.614-5.906-15.63-3.415-1.407.583-2.565.38-3.153-1.432a5.554 5.554 0 0 0-5.766-3.76 2.497 2.497 0 0 0-2.58 2.245c-.201.756-1.463 1.227-2.245 1.826a11.46 11.46 0 0 1-1.085-1.895 3.317 3.317 0 0 1 .01-1.577 10.947 10.947 0 0 0-3.44-9.794C50.904 2.933 44.81 1.725 38.133 4.355c-3.4 1.339-6.414 3.216-8.174 6.729a8.962 8.962 0 0 0 .27 8.813c.717 1.33-.216 1.972-1.147 2.137a2.315 2.315 0 0 1-2.013-.898c-1.822-6.198-11.171-7.48-14.864-3.785a14.558 14.558 0 0 0-3.392 5.245c-1.29 3.666-1.935 7.504.798 10.951 1.748 2.206 1.331 4.3-1.22 5.445-3.318 1.49-4.66 4.18-5.036 7.67-.647 5.997 5.131 12.063 10.369 12.691 2.978.202 5.967.206 8.946.015a4.325 4.325 0 0 0 4.046-2.35c.995-1.777 2.547-1.685 3.569.063a8.333 8.333 0 0 0 9.183 3.889c2.027-.553 4.342-.696 5.383-3.136.318-.745 1.083-1.827 1.647-1.83 1.438-.006 1.795 1.096 1.842 2.54a5.775 5.775 0 0 0 1.183 3.26c5.449 6.612 14.598 8.78 22.406 5.308 4.559-2.047 4.777-2.466 4.621-7.62-.011-.37.057-.741.132-1.637z" fill="#E72192" fill-rule="nonzero"/></svg>
