<svg width="114" height="80" xmlns="http://www.w3.org/2000/svg"><path d="M31.233 22.588c-.736.367-.613.98-.736 1.47l-2.206 10.296c-.245 1.226-.245 1.348.98 1.839 2.82 1.103 5.639 2.574 7.968 4.535 2.574 2.083 4.657 4.657 6.005 7.844 1.839 4.167 1.716 8.457 1.104 12.87-.368 2.574-1.226 5.025-2.33 7.231-1.102 2.33-2.94 4.168-4.78 6.006-1.96 1.961-4.412 3.064-6.986 3.922-3.8 1.226-7.844 1.962-12.012.858-.98-.245-1.838-.49-2.819-.735-2.574-.613-4.535-2.206-6.74-3.31-1.84-.857-2.82-2.696-3.923-4.29-1.716-2.328-3.064-4.902-3.922-7.844-1.226-4.535-1.103-8.947.367-13.36.736-2.083 1.349-4.167 2.574-6.005 1.471-2.084 3.31-3.923 5.393-5.516 2.207-1.593 4.658-2.451 7.11-3.432 2.941-1.103 6.128-.98 9.192-.368 1.47.245 1.47.245 1.839-1.225 1.715-6.62 2.45-13.238 3.554-19.98.123-.49 0-.98.123-1.347.49-1.716.245-2.82-1.839-3.677-1.838-.858-3.31-2.574-3.554-4.903 0-.613-.246-1.103-.368-1.716-.123-.613-.49-1.47.49-1.716 1.103-.245.736.858.98 1.47.246.736.246 1.472.49 2.207.614 1.961 1.717 3.432 3.8 4.045 2.207.735 4.045 2.206 5.026 4.412 1.103 2.206 1.838 3.064 5.148 2.82.735-.123 1.348-.246 2.083-.246.613 0 1.226 0 1.226.736.123.735-.49.612-.858.858-2.819.858-5.27.367-7.6-1.349-.244-.245-.49-.49-.612-.858-.245-.49-.49-1.103-.858-1.716-.368-.612-.613-1.716-1.348-1.593-.858.123-.49 1.103-.613 1.716a64.338 64.338 0 0 0-1.103 6.741c-.123.613 0 .98.735 1.103 2.33.368 4.658 1.103 7.11 1.349 2.94.245 5.76.735 8.702 1.225 5.515.736 11.153 1.471 16.669 2.207 1.961.245 3.922.49 6.006.612 1.47.123 1.593.123 1.96-1.225.736-2.942 1.472-5.884 2.085-8.825.245-.98 0-1.103-.981-1.226-.858 0-1.716-.123-2.574 0-1.348 0-1.961-.735-2.451-1.838-.49-1.104-.736-2.207.245-3.187 1.103-1.226 2.329-1.839 4.045-2.084 3.309-.368 6.618.613 9.928.49 1.47 0 2.941.613 3.309 2.452.245 1.103.123 1.96-.735 2.696-.981.858-1.962 1.471-3.31 1.471-1.593 0-3.064.123-4.657-.123-.858-.122-1.226.246-1.471 1.104-.858 3.432-1.839 6.863-2.574 10.295-.123.613-.123 1.103.245 1.594a462.514 462.514 0 0 1 6.374 10.173c.122.245.367.49.49.735.49.736.858.736 1.716.245 3.432-2.328 7.231-2.941 11.276-3.064 1.716 0 3.432.368 5.025.613 1.594.245 3.065 1.348 4.658 2.206 4.658 2.574 7.6 6.496 9.193 11.522.735 2.329 1.348 4.78 1.225 7.231-.122 3.187-.49 6.374-2.083 9.316-1.103 2.083-2.084 4.29-3.555 6.25-1.47 1.962-3.31 3.065-5.393 4.045-.858.368-1.716.736-2.574 1.349-1.593.98-3.432 1.47-5.393 1.716-4.167.49-8.334-.368-12.38-1.471-.49-.123-.857-.368-1.225-.613-1.47-.98-3.064-1.961-4.535-3.064-1.47-1.103-2.329-2.82-3.064-4.535-1.226-2.452-2.329-4.903-2.82-7.722-.244-1.348-.612-2.574-.122-3.922.123-.49.123-1.226-.613-1.349-.735-.122-.98.245-1.103.98-.49 2.575-2.083 4.536-4.045 6.252-.612.613-1.47.613-2.206.735-1.348.368-2.819.49-4.167 0-.98-.367-2.084.49-2.084 1.594 0 .367.245.49.49.49.49 0 .981 0 1.594.123.98.122 1.226.49 1.103 1.715-.123.981-.735 1.594-1.593 1.349-2.084-.49-4.168-.245-6.374-.368h-.858c-1.716-.123-1.838-.245-1.103-1.716.735-1.716.98-1.838 2.82-1.593.612.122 1.102.49 1.592 0 .613-.613.981-1.349 1.349-2.207.245-.49-.123-.98-.49-1.103-1.594-.858-1.84-2.451-2.084-3.922-.123-.858-.49-1.838-.245-2.574.367-1.348.49-2.941 1.716-3.922.735-.613.49-.98.122-1.593-.735-1.226-1.838-2.084-2.819-3.31-4.412-5.76-8.947-11.399-13.36-17.037-1.47-1.96-2.819-3.922-4.412-5.638-.858-.858-1.716-1.838-2.574-2.696zm2.206-.123c0 .858.49 1.226.858 1.716 2.574 3.31 5.27 6.619 7.844 9.928 3.31 4.29 6.742 8.335 9.928 12.747.98 1.348 2.084 2.574 3.065 3.922.49.613.98.858 1.716.368.735-.49 1.593-.368 2.328-.49 1.226-.123 2.452-.123 3.555-.123.245 0 .613.123.735-.245.123-.368-.122-.613-.49-.735-.613-.123-.858-.49-.613-1.103.245-.368.123-.858.245-1.349 0-.49.245-.613.858-.613 2.574.246 2.574.123 3.31-2.206 1.593-5.27 3.064-10.54 4.535-15.811.245-.98.122-1.103-.98-1.348-2.085-.246-4.168-.736-6.252-.98-4.412-.491-8.702-1.104-13.115-1.717l-8.457-1.103c-2.942-.245-6.006-.858-9.07-.858zm39.222 6.496l-.368.736a594.137 594.137 0 0 1-4.167 13.85c-.245.735-.368 1.47-.613 2.206-.245.98 0 1.226.98 1.103a9.055 9.055 0 0 1 2.574 0c1.349.123 1.349.123 1.226 1.594 0 .245-.245.612.245.858.123-.246.245-.368.368-.49 1.593-3.188 3.555-6.13 6.374-8.335.612-.49.49-.858.122-1.471-1.348-2.206-2.696-4.168-3.922-6.129-.98-1.225-1.716-2.696-2.82-3.922zM31.478 75.047h.245c1.961-.858 4.045-1.47 5.516-3.31.858-1.103.98-1.103 0-2.328-1.962-2.574-4.658-4.413-6.987-6.496-.858-.858-1.593-1.839-2.574-2.574-.613-.49-.98-.368-1.47.122-.613.49-.49.98-.246 1.471l3.677 8.825c.49 1.103.858 2.329 1.226 3.555.123.367.123.735.613.735zm-8.09-4.78c-.122 2.206 0 4.045-.367 5.883-.246 1.103 0 1.226 1.103.98 1.47-.367 3.064-.367 4.412-.98 1.716-.735 1.839-.735 1.226-2.451-.123-.368-.245-.613-.368-.98-.735-2.33-1.838-4.536-2.819-6.865-.613-1.348-1.103-2.696-1.716-4.167-.122-.49-.368-.735-.858-.735-.613 0-.613.367-.613.858-.122.735-.122 1.348-.245 2.083 0 2.329.49 4.535.245 6.374zm88.005-11.89c.122-.98-.123-1.838-.246-2.696-.367-1.593-.245-1.593-1.838-1.47-3.922.244-7.722.612-11.644.857-.98.123-1.348.49-1.471 1.348-.123.981.613.981 1.226 1.104 1.96.49 3.922.98 5.76 1.47a55.608 55.608 0 0 0 6.497 1.471c1.225.245 1.348.123 1.593-1.103 0-.245.123-.613.123-.98zm-15.69 1.226c-.49 0-.857.613-.735 1.103.123.49.368.858.613 1.226 1.594 2.942 3.31 5.638 5.026 8.335.49.735.857 1.47 1.348 2.206.367.613.858.858 1.593.368 1.594-.858 2.452-2.33 3.555-3.677.245-.246.122-.49-.123-.736-.245-.245-.49-.367-.858-.613-2.084-1.593-4.167-3.064-6.006-4.78-1.225-1.103-2.329-2.329-3.677-3.187-.245 0-.49-.245-.735-.245zM38.956 55.56c-1.839-.123-3.555.367-5.27.367-1.594 0-3.065 0-4.659.123-.49 0-.858.122-.858.613-.122.367.246.612.49.858.368.122.736.367 1.104.49 3.677 1.593 7.231 3.064 10.908 4.657.981.368 1.104.368 1.471-.735.613-1.716.368-3.432.49-5.148 0-.49-.245-.858-.857-.858a11.88 11.88 0 0 0-2.82-.367zM15.176 75.415c.245-.613.368-1.226.613-1.716 1.103-2.207 2.084-4.658 2.942-6.987.613-1.593 1.103-3.31 1.47-4.902.123-.736-.122-1.104-.735-1.349-.49-.245-.735.368-.98.736-.246.367-.368.858-.736 1.225-1.96 2.452-3.922 4.903-5.883 7.354-.613.736-1.103 1.594-1.594 2.452-.245.368-.367.735.246.98 1.47.858 2.819 1.839 4.657 2.207zm26.23-11.154c0-.613-.613-.858-1.226-1.103-2.329-1.226-4.657-2.084-7.109-3.187a185.668 185.668 0 0 0-4.657-1.839c-.368-.122-.736-.245-.858.246-.123.245 0 .49.122.735.49.735 1.226 1.348 1.839 1.961 2.819 2.574 5.76 4.903 8.212 7.844.735.858 1.103.858 1.593-.122.613-1.226 1.226-2.451 1.716-3.677.245-.245.245-.49.368-.858zm55.523-6.006c-.245 0-.612-.123-.735.123-.123.367.123.49.368.612 1.716 1.226 3.187 2.697 4.657 4.045 1.839 1.594 3.677 3.187 5.761 4.29.98.613.98.613 1.716-.368.858-1.225 1.226-2.574 1.593-3.922.368-1.225.368-1.225-.858-1.593-3.8-1.103-7.721-1.594-11.398-2.942-.368-.122-.736-.245-1.104-.245zm-9.07-19.366c-1.593.245-3.064.858-4.535 1.471-1.348.49-1.225.735-.49 1.961 1.716 2.942 3.432 5.76 5.148 8.702.245.49.49 1.104 1.226.613.612-.367 1.47-.367 1.225-1.47-.735-3.432-.858-6.987-1.716-10.541-.122-.368-.245-.858-.858-.736zm5.761 22.308c-.49.122-.613.245-.49.735.122.735.245 1.593.368 2.329.612 3.8 1.715 7.477 2.328 11.276.123.98.49 1.226 1.471.858 1.103-.49 2.206-1.103 3.432-1.716s1.226-.735.613-1.838c-.245-.368-.368-.736-.613-.98-1.226-1.594-2.206-3.433-3.187-5.271a58.727 58.727 0 0 0-2.819-4.658c-.367-.49-.613-.735-1.103-.735zm-2.942 16.301c.981 0 1.839-.122 2.697-.367 1.593-.368 1.716-.49 1.47-2.084 0-.245-.122-.613-.244-.858-.613-3.8-1.716-7.6-2.207-11.399 0-.245-.122-.49-.122-.735-.123-.368-.368-.49-.736-.49-.367 0-.612.245-.735.49s0 .49-.123.735c-.49 4.535-.98 8.948-1.47 13.483 0 1.225.122 1.225 1.47 1.225zm-68.27-9.928c0-1.838.122-3.677.122-5.515 0-.368 0-.736-.49-.736-.368 0-.368.245-.49.49-.49 1.226-.98 2.452-1.348 3.678-.736 2.206-1.471 4.29-2.697 6.25-.613.981-.858 2.207-1.103 3.31-.123.49 0 .98.735 1.103 1.349.368 2.82.368 4.168.858.367.123.858.123.858-.368 0-1.103.858-2.083.122-3.186-.122-.246-.122-.49-.122-.858.245-1.471.245-3.31.245-5.026zM9.17 42.444c-1.96 1.103-2.941 2.451-3.677 4.167-.245.49-.245.858.245 1.103 1.349.736 2.574 1.594 4.045 2.206 2.697 1.103 5.516 1.839 8.09 3.31.367.245.613.245.98-.123.368-.368.123-.613-.122-.858s-.49-.613-.858-.858c-1.103-1.225-2.574-2.206-3.8-3.432-1.716-1.838-3.31-3.677-4.903-5.515zm11.4 8.825c-.123-.123-.246-.368-.246-.49-.735-2.207-2.084-4.29-2.819-6.62-.49-1.715-1.593-3.186-2.451-4.78-.368-.735-.98-.98-1.471-.49-1.103.736-2.329 1.226-3.31 2.206-.735.736-.612 1.104 0 1.594l8.825 8.825c.246.245.368.49.736.367.49.123.735 0 .735-.612zm82.12-9.193c-1.348-1.226-2.819-2.084-4.657-2.574-.981-.245-1.104-.245-1.471.858-.613 1.961-1.349 3.922-1.839 5.883-.367 1.471-.98 2.942-1.225 4.413-.123.49-.123.858.49 1.225.613.368.858-.122 1.103-.367 1.961-1.961 3.677-4.045 5.393-6.129.858-1.103 1.716-2.083 2.206-3.309zM87.614 59.481c-.49-.368-.858.122-1.225.245-1.594.613-2.942 1.716-4.535 2.451-2.084 1.103-4.168 2.329-6.251 3.555-1.104.613-1.104.735-.736 2.083.368 1.226 1.226 2.33 1.961 3.432.368.49.736.49 1.103 0 .858-.98 1.839-1.716 2.574-2.819 2.084-2.696 4.29-5.27 6.619-7.967.245-.245.613-.49.49-.98zM9.17 71.983c.368-.123.49-.368.736-.613 1.348-1.961 2.696-3.922 4.167-5.883 1.348-1.716 2.697-3.432 3.922-5.148.245-.368.858-.736.368-1.226-.49-.613-.858.123-1.348.245 0 0-.123 0-.123.123-2.574 2.206-5.76 3.8-8.457 5.883-3.432 2.697-3.677 1.593-.735 5.516.245.367.612.49.858.735.245.245.367.245.612.368zm101.365-18.63c.245-.491 0-.736-.123-1.104-.368-1.348-1.103-2.451-1.716-3.677s-.49-1.348-1.716-.735c-.368.122-.613.367-.858.49-2.329 1.348-4.658 2.696-7.109 3.677-.98.368-1.961.858-2.696 1.47-.246.246-.368.369-.246.736.123.245.368.245.613.245.98-.122 1.961-.245 2.942-.245 3.554 0 7.232-.367 10.909-.858zm-107.37.857c.367.123.612.123.857.123 3.432 0 6.864.49 10.174.858.858.122 1.838.122 2.696.122.368 0 .858 0 .98-.612 0-.368-.244-.613-.612-.736-.613-.368-1.348-.613-1.961-.98-2.574-1.104-5.27-1.716-7.845-3.065-.735-.367-1.47-.858-2.328-1.225-.613-.245-.858-.123-.981.49-.49 1.593-.735 3.187-.98 5.025zm89.352-15.689c-.245 0-.613 0-.858-.122-1.839 0-2.084.245-1.839 2.084.123 1.103.49 2.083.49 3.186.123 2.207.981 4.413.859 6.62 0 .612.367.734.858.857.49.123.735-.245.858-.735 0-.123.122-.368.245-.49.98-3.31 1.838-6.62 2.696-9.929.123-.49 0-.735-.49-1.103-.858-.613-1.838-.368-2.819-.368zM81.854 75.047c.49 0 .735-.49.857-.735.981-1.716 1.716-3.432 2.574-5.27 1.104-2.452 2.574-4.781 3.677-7.355.123-.368.368-.613-.122-.858-.368-.245-.735-.368-1.103.123-.245.367-.49.612-.736.858-1.348 1.715-2.696 3.431-4.167 5.025-1.348 1.593-2.942 3.187-4.29 4.903-.735.858-.735.98.245 1.593.736.49 1.471.858 2.207 1.348.367.123.612.245.858.368zM6.842 55.313c-1.104 0-2.33-.122-3.432-.122-.613 0-.858.245-.858.858.122.98 0 1.838 0 2.696-.123 2.33.367 2.697 2.451 1.839 2.942-1.103 5.883-1.961 8.825-2.82.98-.244 1.961-.612 2.942-.98.245-.122.367-.245.367-.49s-.245-.368-.49-.368c-.123 0-.368-.122-.49-.122-3.064.245-6.129-.245-9.315-.49zm12.256-17.895c-.858 0-1.838-.122-2.696.246-.736.367-.858.735-.368 1.348.98 1.348 1.716 2.941 2.206 4.657.736 2.33 1.839 4.413 2.82 6.62.122.122.122.367.245.49.122.244.367.367.735.367s.49-.245.49-.613v-.98c-.245-3.31-.245-6.619-.858-9.928-.367-2.207-.367-2.207-2.574-2.207zm10.419 17.895c1.47.123 2.696-.245 3.922-.122 2.574.245 5.27-.49 7.844-.245.613 0 .736-.245.736-.858.122-1.349-.613-2.33-1.226-3.555-.49-.858-.98-.98-1.838-.613-.981.368-1.962.858-2.942 1.103-2.697.613-5.148 1.839-7.845 2.574-.367.123-.857.246-.735.736.123.49.368.858.98.858.613 0 .859.122 1.104.122zm60.671 6.497c-.245 0-.245.122-.368.245-1.103 1.225-1.348 2.941-2.083 4.29-1.594 2.573-2.942 5.393-4.045 8.334-.368.736-.368 1.103.49 1.348 1.103.368 2.207.736 3.187 1.104.736.245 1.103 0 1.226-.736.245-1.838.613-3.554.735-5.393.245-2.819.368-5.638.98-8.335.123-.367.123-.612-.122-.857zM36.381 44.037c-1.226-1.226-2.452-2.206-3.8-3.187-1.103-.858-1.348-.735-1.961.49a91.372 91.372 0 0 0-2.452 4.903c-.735 1.716-1.715 3.187-2.573 4.78-.123.368-.368.613 0 .858.245.123.612.123.735-.122.735-.736 1.47-1.226 2.329-1.839 2.574-1.838 5.148-3.677 7.722-5.883zm58.71 9.193c.368 0 .49.122.49 0 2.206-1.349 4.658-2.452 6.987-3.677 1.348-.736 2.696-1.594 3.922-2.33 1.225-.735 1.225-.857.49-1.96-.613-.858-1.47-1.594-2.451-2.206-.736-.49-1.103-.49-1.716.245-1.839 2.328-3.677 4.412-5.761 6.618-.613.98-1.226 2.084-1.961 3.31zm-9.438 4.535c-.368 0-.735.122-1.103.245-1.47.368-3.064.613-4.535.98-1.961.49-4.045.736-6.006 1.226-.368.123-.98.123-.98.736.122 1.225.245 2.45.49 3.677.122.367.368.612.858.49 2.206-.858 4.167-2.084 6.25-3.064 1.472-.736 2.82-1.594 4.29-2.452.491-.245.981-.613 1.472-.858.245-.122.367-.367.245-.49-.123-.123-.368-.245-.49-.368 0-.122-.246-.122-.49-.122zm2.084-4.903c.122-.49-.245-.735-.49-.98-1.104-1.594-2.207-3.187-3.187-4.903-.736-1.349-1.471-2.697-2.329-4.045-.368-.613-.858-.858-1.47-.368-.981.858-1.84 1.716-2.697 2.574-.736.858-.736 1.226.245 1.961 2.941 2.207 6.128 3.922 9.192 5.761.368.245.613.123.736 0zM17.75 57.765c-.368-.49-.613-.245-.98-.123-.736.368-1.594.613-2.452.736-3.064.858-6.25 1.47-9.07 3.064-.613.368-1.47.245-1.716.98-.245.736.368 1.349.613 2.084.858 2.206.735 2.084 2.697.858 2.819-1.839 5.515-3.922 8.58-5.638.857-.49 1.96-.858 2.328-1.961zm9.56-4.78c.246-.123.613-.246.981-.368 2.697-.858 5.393-1.716 8.09-2.697 3.677-1.348 3.8-.98 1.103-4.29l-.123-.122c-.245-.49-.735-.368-1.103-.245a2.669 2.669 0 0 0-.98.613c-2.207 1.716-4.413 3.432-6.742 5.025-.613.368-1.103.98-1.716 1.47-.122.123-.122.246-.122.491.245 0 .367.245.613.123zm49.15-5.516c-.49.735-.98 1.226-1.348 1.839-.858 1.348-.49 1.96.736 2.328 3.186.98 6.373 1.961 9.437 2.942.123 0 .368.123.49.123.368 0 .859.122.981-.368.123-.368-.245-.613-.49-.858s-.613-.368-.858-.613c-.858-.49-1.839-.98-2.697-1.47-1.96-1.35-4.044-2.575-6.25-3.923zM58.689 63.28c.49 0 .858.123 1.348.123 3.187.49 6.129-1.716 6.374-5.025 0-.49-.123-.736-.613-.736-1.348.245-2.696.123-3.677 1.348-.613.858-1.593 1.471-2.329 2.33-.49.612-.98 1.102-1.103 1.96zM23.266 49.308h.367c.123-.123.246-.246.246-.368.735-2.942 1.348-5.76 1.96-8.703.614-2.819.246-3.064-2.573-2.941-.736 0-.858.368-.736.98.245.98.368 1.961.245 2.942 0 2.697.858 5.393.49 8.09zm33.216 13.36c.735-.613.98-1.594 1.226-2.452 1.225-2.942 1.225-2.942-.49-5.393-.859-1.103-1.226-1.103-2.084 0-.123.123-.246.368-.368.613-1.103 2.084-.858 4.29.735 6.006.49.368.736.735.98 1.225zM72.048 49.92c-1.716 0-3.432-.122-5.025-.122-.736 0-.98.368-1.226.858-.245.735.245.98.735 1.103 1.104.49 1.716 1.47 2.084 2.574.123.368.123.858.123 1.226.122.612.613.49 1.103.49.368 0 .735 0 .858-.613.367-1.716.858-3.555 1.348-5.516zm-47.189-.122c.368-.245.49-.368.613-.49 1.961-2.82 3.187-6.006 4.658-9.193.245-.49.122-.736-.246-.98-.49-.246-.858-.49-1.348-.736-.613-.245-.98-.123-1.225.613-.246.858-.368 1.838-.613 2.696-.613 2.697-1.103 5.27-1.839 8.09zm58.098 5.27v-.367c-2.574-1.226-5.516-1.716-8.212-2.574-.368-.123-.736 0-.858.367-.246.736-.49 1.349-.736 2.084-.245 1.226 0 1.47 1.226 1.348 2.941-.245 5.76-.49 8.58-.858zm-10.174 3.064c-.122 1.104.123 1.349 1.104 1.104.612-.246 1.225-.49 1.96-.49 3.555-.246 6.864-1.594 10.419-1.84.245 0 .49-.122.49-.367 0-.368-.367-.368-.613-.368-4.167.368-8.212.613-12.379.98-.735 0-.98.369-.98.981zm-11.766-6.25c-.98 0-2.084.367-3.064.612-.368.123-.736.49-.49.858a9.01 9.01 0 0 0 1.96 2.33c.246.244.613 0 .981 0 1.103-.369 1.47-1.35 1.961-2.207.613-.98.49-1.348-.735-1.594h-.613zm3.8 4.902c1.715.123 2.083-.49 1.47-1.96a3.67 3.67 0 0 0-.49-.981c-.49-.736-.858-.736-1.226.122-.245.613-.367 1.226-.612 1.839-.123.612 0 .858.857.98zm25.739-2.206c.368-.613.245-1.103.122-1.593 0-.368-.367-.49-.612-.368-.246.122-.49.245-.49.613.122.49.49.858.98 1.348zm-69.129 2.819c-.49.49-1.103.98-1.103 1.716 0 0 .368.123.49.123.858-.368.49-1.226.613-1.839zm3.8-2.329c.245 0 .49.123.735.123s.613.122.613-.368c0-.368-.368-.49-.735-.368-.245.123-.49.246-.613.613zm-.736 2.942c0 .368.123.613.246.858.122.245.367.49.612.122.123-.245.123-.49 0-.612a1.12 1.12 0 0 0-.858-.368zm69.007-2.084c.367.368.735.368 1.225.123-.49-.368-.858-.368-1.225-.123zm0 2.084v.245c.122.245.245.49.49.613.122 0 .245-.123.245-.123 0-.245-.245-.367-.368-.49-.122-.123-.245-.123-.367-.245zm-2.942.122c0-.122-.123-.367-.123-.367-.245 0-.367.122-.367.367 0 .123 0 .368.122.368.123 0 .245-.122.368-.368z" fill="#E72192" fill-rule="nonzero"/></svg>
