<svg width="38" height="94" xmlns="http://www.w3.org/2000/svg"><path d="M15.466 62.388c.555-3.903 1.123-7.64 1.61-11.388.376-2.902.606-5.823.982-8.725.756-5.85 1.418-11.717 2.391-17.532 1.304-7.788 2.867-15.533 4.313-23.298.212-1.142.768-1.711 1.99-1.324.96.304 1.94.553 2.89.892a1.683 1.683 0 0 1 1.071 2.32 205.295 205.295 0 0 0-5.395 23.275c-.605 3.784-.94 7.612-1.361 11.424-.51 4.612-.995 9.227-1.458 13.845-.317 3.215-.597 6.434-.786 9.658.121.524.501.95 1.008 1.13 1.72.335 3.528.302 5.202.768a38.889 38.889 0 0 1 6.039 2.32c2.41 1.13 3.05 3.427 3.076 5.812.025 2.3-.302 4.605-.468 6.908-.032.45-.037.9-.051 1.35-.11 3.42-.083 6.85-.371 10.253-.22 2.59-.532 2.627-3.1 2.727-2.76.107-5.548.7-8.265.449-5.068-.467-10.127-.707-15.211-.865-2.81-.087-5.585-1.107-8.39-1.63a1.259 1.259 0 0 1-1.13-1.613c.257-3.319.447-6.643.773-9.955.2-2.89.583-5.763 1.149-8.603.546-2.375 1.425-4.805 3.505-6.352a7.822 7.822 0 0 1 3.4-1.388c2.142-.318 4.331-.32 6.587-.458zm19.58 11.045c.03-.557.027-1.115-.01-1.672-.208-1.726-.518-3.387-2.27-4.35a17.737 17.737 0 0 0-8.067-2.338 21.496 21.496 0 0 0-3.003-.211c-1.765.199-3.504.621-5.258.922a.87.87 0 0 1-.709-.15c-1.171-1.798-2.988-1.156-4.537-1.083a6.863 6.863 0 0 0-4.64 1.442c-2.086 1.865-2.665 4.338-3.24 6.834-.636 2.765-.576 2.81 2.222 2.76 1.863-.034 3.726-.278 5.585-.233 1.809.043 3.609.378 5.419.507 4.929.351 9.869.576 14.79 1.018 3.107.278 3.824 1.126 3.719-3.446zM17.219 62.937c.245.306.577.533.951.65a1.89 1.89 0 0 0 1.296-.968c.209-1.294.348-2.599.417-3.908.374-3.61.755-7.219 1.142-10.827.414-3.905 1.028-7.8 1.201-11.716.324-7.352 1.969-14.466 3.556-21.59.787-3.533 1.936-6.985 2.88-10.485.163-.61.631-1.56-.562-1.624-.809-.044-1.83-.247-2.066 1.143-.414 2.43-1.105 4.816-1.487 7.25-1.152 7.35-2.21 14.715-3.31 22.073-.298 1.993-.646 3.979-.921 5.974-.495 3.588-.96 7.18-1.421 10.771-.552 4.293-1.087 8.588-1.676 13.257zm.723 27.501c0-.462.003-.61 0-.757-.075-2.916-.18-5.832-.188-8.748a1.69 1.69 0 0 1 .773-1.112c.372-.023.73.14.959.434.17.415.242.864.21 1.311.093 2.541-.677 5.062.228 7.651.391 1.12.602 1.702 1.84 1.533.445-.002.89.044 1.326.137 1.964.17 3.942.56 5.972-.176a3.222 3.222 0 0 0-.452-.632.763.763 0 0 0-.483-.122c-1.364.088-1.972-.432-1.859-1.74.126-1.455.339-2.904.533-4.353.214-1.59.45-3.177.676-4.758-1.127-.21-2.097-.445-3.08-.542a1.159 1.159 0 0 0-.954.484c-.374 2.542-.83 5.094-.218 7.892l.98-7.01c1.602.321 1.518 1.098 1.467 2.051-.11 2.064-1.098 4.12.005 6.238.199.382-.42 1.189-.66 1.8-.45-.341-.913-.667-1.342-1.033a2.4 2.4 0 0 1-.343-.642 4.019 4.019 0 0 1-.244.608c-.246.364-.51.715-.768 1.071a4.031 4.031 0 0 1-.95-1.11 6.715 6.715 0 0 1-.304-2.082c-.03-2.817-.013-5.635-.013-8.504l-10.276-.645c-.172 2.367-.38 4.618-.486 6.875a45.32 45.32 0 0 0 .028 4.795c.21.386.518.71.892.939l.623-.29c0-3.325-.029-6.65.033-9.973a3.79 3.79 0 0 1 .702-1.38 7.81 7.81 0 0 1 1.034 1.239c.09.343.1.702.025 1.05-.09 2.574-.213 5.147-.257 7.723.075.502.23.99.457 1.443l.41-.126c.142-3.001.238-6.005.468-9 .068-.63.425-1.194.966-1.526.998-.022 1.033.888.969 1.686-.025.302-.107.599-.133.901-.157 1.859-.43 3.72-.41 5.578a2.633 2.633 0 0 0 1.844 2.822zm10.369-4.94l.503.072c.152-1.436.258-2.88.486-4.305.176-.399.435-.756.76-1.048.367.305.661.689.86 1.123a10.21 10.21 0 0 1-.079 2.231c-.098 1.424-.208 2.848-.312 4.271a3.822 3.822 0 0 0 .559-1.831c.147-1.655.205-3.322.439-4.964.211-.51.528-.97.929-1.349.375.398.673.862.88 1.369.053.652.008 1.31-.136 1.948-.303 2.426-.619 4.85-.94 7.358l1.733.175a3.36 3.36 0 0 0 .324-.885c.145-2.866.268-5.733.371-8.6a1.983 1.983 0 0 0-.274-1.016 1.281 1.281 0 0 0-.72-.624 24.91 24.91 0 0 0-3.301-.324c-.41.01-.79.22-1.019.561-.416 1.933-.722 3.889-1.063 5.837zM8.828 77.395c-1.767 1.77-2.343 11.48-.68 12.92-.02-4.388 1.363-8.417.68-12.92zm-2.69.734l-.448-.044c-.938 2.093-1.716 9.858-.707 11.272L6.139 78.13zM2.548 88.62l.958-10.373c-.999 1.229-1.528 9.627-.958 10.373z" fill="#E72192" fill-rule="nonzero"/></svg>
