<svg width="69" height="83" xmlns="http://www.w3.org/2000/svg"><path d="M56.27 0c1.338.645 3.179 1.37 4.849 2.371a17.976 17.976 0 0 1 6.996 6.912c1.603 3.04 1.018 5.844-1.67 7.963-.335.17-.621.42-.834.727-1.02 3.197-3.723 5.11-5.784 7.513-5.407 6.302-10.738 12.669-16.21 18.916-5.013 5.725-10.188 11.312-15.256 16.992-1.26 1.413-2.359 2.967-3.58 4.416-.394.41-.842.765-1.333 1.054-4.977 3.348-10.03 6.59-14.91 10.07-2.232 1.59-4.077 3.702-6.207 5.446-.559.458-1.527.427-2.307.62a7.601 7.601 0 0 1 .14-2.18c1.542-4.162 3.233-8.271 4.748-12.443 1.403-3.862 2.584-7.804 4.01-11.657.306-.823 1.252-1.412 1.894-2.117 1.449-1.59 2.967-3.127 4.32-4.793 1.726-2.127 3.283-4.387 4.974-6.543 4.482-5.714 9.035-11.374 13.488-17.11 5.032-6.48 10.584-12.58 14.774-19.677l2.573-4.359c.053-.18.15-.346.281-.483A189.215 189.215 0 0 1 55.35.061c.305-.044.613-.064.921-.06zM17.507 62.196c1.786-.836 3.222-1.038 3.339 1.484a2.13 2.13 0 0 0 1.606.366 7.114 7.114 0 0 0 2.3-1.63 633.821 633.821 0 0 0 9.327-10.154c4.143-4.602 8.28-9.21 12.355-13.872 4.397-5.031 8.735-10.113 13.062-15.202 1.32-1.552 2.52-3.203 3.914-4.987-6.523-2.09-10.452-5.986-11.929-12.324-2.613 3.404-4.892 6.44-7.245 9.418-3.553 4.496-7.149 8.96-10.744 13.423-1.88 2.334-3.878 4.577-5.68 6.967-4.901 6.5-9.712 13.069-14.595 19.584-1.019 1.36-.824 2.64-.265 4.025 2.902-.654 2.902-.654 4.555 2.902zm.99 2.198c-2.57.261-2.885.05-3.99-2.392l-4.442-1.935c-.826 2.358-1.734 4.973-2.661 7.582-.507 1.424-.641 2.757.905 3.66a3.89 3.89 0 0 0 4.497.025c1.57-1.089 3.154-2.157 4.694-3.285.798-.584 1.513-1.28 2.266-1.924l-1.27-1.73zM64.413 15.69c.64-.413 1.22-.91 1.725-1.479a3.429 3.429 0 0 0-.207-4.409 24.45 24.45 0 0 0-4.094-4.293 19.623 19.623 0 0 0-5.22-2.805c-2.275-.819-3.688.519-2.941 2.764a18.867 18.867 0 0 0 2.719 5.606c1.842 2.376 4.145 4.399 8.018 4.616zm-1.557-5.134a4.037 4.037 0 0 1-1.254 1.649c-.558.265-1.5-.237-2.264-.433a1.3 1.3 0 0 1-.45-.351 3.597 3.597 0 0 1-.788-4.508 1.443 1.443 0 0 1 1.23-.42c2.012.338 3.495 2.046 3.526 4.063z" fill="#E72192" fill-rule="nonzero"/></svg>
