<svg width="69" height="71" xmlns="http://www.w3.org/2000/svg"><path d="M21.29 24.443c-6.033 1.99-10.524 6.824-10.4 12.668 1.617-.001 3.238-.007 4.861-.015-.019-1.624.065-3.038.215-4.037.48-3.749 2.41-6.62 5.324-8.616zm1.456-.881c-.18.096-.358.196-.533.298-.328-.581-.077-1.457.754-1.457 8.491.3 18.024 3.902 17.428 14.258-.446 7.505-5.213 15.91-13.257 16.96-.666.082-1.316.124-1.951.129l-.134.172c-.45.543-1.115.267-1.41-.235-.197-.017-.392-.039-.585-.064a.585.585 0 0 1-.09-.001 4.477 4.477 0 0 1-1.021-.186c-6.938-1.445-11.53-7.69-12.982-15.124-1.49-7.955 5.959-13.958 12.662-15.91.805-.202 1.27.555 1.12 1.16zm-.066.716c.087.037.182.063.287.076.56.01 1.113.034 1.658.072.09 1.785.36 7.038.43 12.605l4.035-.03a19.578 19.578 0 0 0-1.356-6.343c-.447-2.552-2.085-4.353-4.469-5.404-2.532 1.501-4.32 3.603-5.362 6.454a30.745 30.745 0 0 0-.35 5.378c1.782-.01 3.567-.024 5.353-.038.036-4.26-.022-8.55-.226-12.77zm4.097.382c.925 1.27 1.619 2.905 2 3.596a21.334 21.334 0 0 1 2.142 8.733c2.526-.016 5.046-.027 7.557-.027-.004-.1-.01-.2-.017-.3-.5-7.687-5.305-11.036-11.682-12.002zm-8.436 25.35c-1.577-2.966-2.307-7.259-2.522-10.963-1.576.008-3.15.013-4.719.015.265 1.367.783 2.775 1.59 4.203 1.394 2.61 3.322 5.071 5.65 6.744zm5.696 2.155c2.959-3.775 4.818-8.439 5.05-13.213l-4.016.03c.018 5.375-.188 10.7-.953 13.188a9.59 9.59 0 0 1-.08-.005zm2.388-.144c.72-.132 1.454-.346 2.203-.65 4.862-2.12 9.144-6.924 9.78-12.458-2.496 0-5.002.012-7.512.027-.25 4.616-1.875 9.16-4.47 13.08zm-3.542-13.022c-1.747.014-3.494.027-5.239.038.03.409.067.818.11 1.227.298 3.452 1.191 6.904 3.277 9.755 1.638-.45 2.234-1.5 1.638-3.302.15-1.5.15-3.001.15-4.502.026-1.068.048-2.14.064-3.216zm25.574 14.647c.042-.01.086-.019.131-.024 3.873-.15 7.746-.15 11.619-.3 1.192 0 1.192 1.95 0 1.95-3.873.15-7.746.15-11.619.3-.081 0-.157-.008-.227-.023-.123 2.21-.287 4.418-.518 6.628-.097.686-.115 1.581-.157 2.537 4.638-.02 18.926.745 18.926-4.488V39.963c0-6.604.596-13.658 0-20.262-.149-2.552-16.385-1.35-18.47-1.35l-.048-.002c.091 2.099.182 4.201.266 6.305 4.446-.002 8.891-.15 13.337-.3 1.191 0 1.191 1.951 0 1.951-4.42.297-8.841.3-13.261.3.063 1.701.121 3.403.17 5.103 3.57 0 7.287 0 11.005.3 1.192.15 1.192 2.102 0 1.952-3.553-.299-7.252-.3-10.953-.3.092 3.812.131 7.618.08 11.406-.076 2.86-.15 5.72-.281 8.58zm-.44-37.09c.04-.005.081-.007.124-.007 5.81 0 11.62-.15 17.429-.15 1.638 0 1.936.45 2.68 1.651 1.49 2.101.299 7.955.299 10.356v31.82c0 .75.298 3.752-.596 4.653-1.49 1.35-5.512.75-7.15.9l-13.262.862c-.167 1.367-.517 2.665-1.336 3.49-1.34 1.502-5.81.601-7.448.601H5.688c-1.638 0-3.128-.3-4.022-1.801-3.724-6.454-.149-18.161.596-24.915 1.34-11.557 1.192-22.964-.149-34.521a.89.89 0 0 1 .054-.464c.046-.328.263-.63.69-.737 6.257-1.5 12.811-1.05 19.068-2.702C27.883 3.792 33.692 1.84 39.65.04c.447-.15 1.191.15 1.191.6.273 2.334.67 4.668.964 7.002 3.512-.15 5.815.256 6.037 4.856.056 1.35.114 2.704.173 4.059zM2.412 9.85c.2.22.507.342.892.245.217-.052.434-.102.652-.15 1.983 16.188-.51 31.218-1.248 47.279-.15 2.701-.745 7.054.149 9.456 2.681 1.8 5.511 2.551 8.49 2.251h11.023c4.171 0 22.791 2.552 23.536-3.752 1.787-16.21 1.34-32.27.596-48.48-.298-5.853-2.681-7.054-8.342-6.904-3.873.15-7.746.15-11.619.3-7.746.15-15.491.45-23.237.6-.565 0-.862-.404-.892-.845zm13.278-1.426c7.461-.193 14.879-.387 22.172-.58a60.693 60.693 0 0 0 2.062-.097c-.97-5.3-1.956-5.206-7.722-3.505-3.277 1.05-6.554 2.1-9.832 3.001-2.198.58-4.434.92-6.68 1.181z" fill="#E72192" fill-rule="nonzero"/></svg>
